<svg width="375" height="49" viewBox="0 0 375 49" fill="none" xmlns="http://www.w3.org/2000/svg">
<g clip-path="url(#clip0_5_228)">
<path d="M7.68994 0.190002H-9.81006V16.07H7.68994V0.190002Z" fill="white" stroke="black" stroke-width="0.39" stroke-miterlimit="10"/>
<path d="M25.1899 0.190002H7.68994V16.07H25.1899V0.190002Z" fill="black" stroke="black" stroke-width="0.39" stroke-miterlimit="10"/>
<path d="M42.6899 0.190002H25.1899V16.07H42.6899V0.190002Z" fill="white" stroke="black" stroke-width="0.39" stroke-miterlimit="10"/>
<path d="M60.1899 0.190002H42.6899V16.07H60.1899V0.190002Z" fill="black" stroke="black" stroke-width="0.39" stroke-miterlimit="10"/>
<path d="M7.68994 16.08H-9.81006V31.96H7.68994V16.08Z" fill="black" stroke="black" stroke-width="0.39" stroke-miterlimit="10"/>
<path d="M25.1899 16.08H7.68994V31.96H25.1899V16.08Z" fill="white" stroke="black" stroke-width="0.39" stroke-miterlimit="10"/>
<path d="M42.6899 16.08H25.1899V31.96H42.6899V16.08Z" fill="black" stroke="black" stroke-width="0.39" stroke-miterlimit="10"/>
<path d="M60.1899 16.08H42.6899V31.96H60.1899V16.08Z" fill="white" stroke="black" stroke-width="0.39" stroke-miterlimit="10"/>
<path d="M7.68994 31.96H-9.81006V47.84H7.68994V31.96Z" fill="white" stroke="black" stroke-width="0.39" stroke-miterlimit="10"/>
<path d="M25.1899 31.96H7.68994V47.84H25.1899V31.96Z" fill="black" stroke="black" stroke-width="0.39" stroke-miterlimit="10"/>
<path d="M42.6899 31.96H25.1899V47.84H42.6899V31.96Z" fill="white" stroke="black" stroke-width="0.39" stroke-miterlimit="10"/>
<path d="M60.1899 31.96H42.6899V47.84H60.1899V31.96Z" fill="black" stroke="black" stroke-width="0.39" stroke-miterlimit="10"/>
</g>
<g clip-path="url(#clip1_5_228)">
<path d="M77.6899 0.190002H60.1899V16.07H77.6899V0.190002Z" fill="white" stroke="black" stroke-width="0.39" stroke-miterlimit="10"/>
<path d="M95.1899 0.190002H77.6899V16.07H95.1899V0.190002Z" fill="black" stroke="black" stroke-width="0.39" stroke-miterlimit="10"/>
<path d="M112.69 0.190002H95.1899V16.07H112.69V0.190002Z" fill="white" stroke="black" stroke-width="0.39" stroke-miterlimit="10"/>
<path d="M130.19 0.190002H112.69V16.07H130.19V0.190002Z" fill="black" stroke="black" stroke-width="0.39" stroke-miterlimit="10"/>
<path d="M77.6899 16.08H60.1899V31.96H77.6899V16.08Z" fill="black" stroke="black" stroke-width="0.39" stroke-miterlimit="10"/>
<path d="M95.1899 16.08H77.6899V31.96H95.1899V16.08Z" fill="white" stroke="black" stroke-width="0.39" stroke-miterlimit="10"/>
<path d="M112.69 16.08H95.1899V31.96H112.69V16.08Z" fill="black" stroke="black" stroke-width="0.39" stroke-miterlimit="10"/>
<path d="M130.19 16.08H112.69V31.96H130.19V16.08Z" fill="white" stroke="black" stroke-width="0.39" stroke-miterlimit="10"/>
<path d="M77.6899 31.96H60.1899V47.84H77.6899V31.96Z" fill="white" stroke="black" stroke-width="0.39" stroke-miterlimit="10"/>
<path d="M95.1899 31.96H77.6899V47.84H95.1899V31.96Z" fill="black" stroke="black" stroke-width="0.39" stroke-miterlimit="10"/>
<path d="M112.69 31.96H95.1899V47.84H112.69V31.96Z" fill="white" stroke="black" stroke-width="0.39" stroke-miterlimit="10"/>
<path d="M130.19 31.96H112.69V47.84H130.19V31.96Z" fill="black" stroke="black" stroke-width="0.39" stroke-miterlimit="10"/>
</g>
<g clip-path="url(#clip2_5_228)">
<path d="M147.69 0.190002H130.19V16.07H147.69V0.190002Z" fill="white" stroke="black" stroke-width="0.39" stroke-miterlimit="10"/>
<path d="M165.19 0.190002H147.69V16.07H165.19V0.190002Z" fill="black" stroke="black" stroke-width="0.39" stroke-miterlimit="10"/>
<path d="M182.69 0.190002H165.19V16.07H182.69V0.190002Z" fill="white" stroke="black" stroke-width="0.39" stroke-miterlimit="10"/>
<path d="M200.19 0.190002H182.69V16.07H200.19V0.190002Z" fill="black" stroke="black" stroke-width="0.39" stroke-miterlimit="10"/>
<path d="M147.69 16.08H130.19V31.96H147.69V16.08Z" fill="black" stroke="black" stroke-width="0.39" stroke-miterlimit="10"/>
<path d="M165.19 16.08H147.69V31.96H165.19V16.08Z" fill="white" stroke="black" stroke-width="0.39" stroke-miterlimit="10"/>
<path d="M182.69 16.08H165.19V31.96H182.69V16.08Z" fill="black" stroke="black" stroke-width="0.39" stroke-miterlimit="10"/>
<path d="M200.19 16.08H182.69V31.96H200.19V16.08Z" fill="white" stroke="black" stroke-width="0.39" stroke-miterlimit="10"/>
<path d="M147.69 31.96H130.19V47.84H147.69V31.96Z" fill="white" stroke="black" stroke-width="0.39" stroke-miterlimit="10"/>
<path d="M165.19 31.96H147.69V47.84H165.19V31.96Z" fill="black" stroke="black" stroke-width="0.39" stroke-miterlimit="10"/>
<path d="M182.69 31.96H165.19V47.84H182.69V31.96Z" fill="white" stroke="black" stroke-width="0.39" stroke-miterlimit="10"/>
<path d="M200.19 31.96H182.69V47.84H200.19V31.96Z" fill="black" stroke="black" stroke-width="0.39" stroke-miterlimit="10"/>
</g>
<g clip-path="url(#clip3_5_228)">
<path d="M217.69 0.190002H200.19V16.07H217.69V0.190002Z" fill="white" stroke="black" stroke-width="0.39" stroke-miterlimit="10"/>
<path d="M235.19 0.190002H217.69V16.07H235.19V0.190002Z" fill="black" stroke="black" stroke-width="0.39" stroke-miterlimit="10"/>
<path d="M252.69 0.190002H235.19V16.07H252.69V0.190002Z" fill="white" stroke="black" stroke-width="0.39" stroke-miterlimit="10"/>
<path d="M270.19 0.190002H252.69V16.07H270.19V0.190002Z" fill="black" stroke="black" stroke-width="0.39" stroke-miterlimit="10"/>
<path d="M217.69 16.08H200.19V31.96H217.69V16.08Z" fill="black" stroke="black" stroke-width="0.39" stroke-miterlimit="10"/>
<path d="M235.19 16.08H217.69V31.96H235.19V16.08Z" fill="white" stroke="black" stroke-width="0.39" stroke-miterlimit="10"/>
<path d="M252.69 16.08H235.19V31.96H252.69V16.08Z" fill="black" stroke="black" stroke-width="0.39" stroke-miterlimit="10"/>
<path d="M270.19 16.08H252.69V31.96H270.19V16.08Z" fill="white" stroke="black" stroke-width="0.39" stroke-miterlimit="10"/>
<path d="M217.69 31.96H200.19V47.84H217.69V31.96Z" fill="white" stroke="black" stroke-width="0.39" stroke-miterlimit="10"/>
<path d="M235.19 31.96H217.69V47.84H235.19V31.96Z" fill="black" stroke="black" stroke-width="0.39" stroke-miterlimit="10"/>
<path d="M252.69 31.96H235.19V47.84H252.69V31.96Z" fill="white" stroke="black" stroke-width="0.39" stroke-miterlimit="10"/>
<path d="M270.19 31.96H252.69V47.84H270.19V31.96Z" fill="black" stroke="black" stroke-width="0.39" stroke-miterlimit="10"/>
</g>
<g clip-path="url(#clip4_5_228)">
<path d="M287.69 0.190002H270.19V16.07H287.69V0.190002Z" fill="white" stroke="black" stroke-width="0.39" stroke-miterlimit="10"/>
<path d="M305.19 0.190002H287.69V16.07H305.19V0.190002Z" fill="black" stroke="black" stroke-width="0.39" stroke-miterlimit="10"/>
<path d="M322.69 0.190002H305.19V16.07H322.69V0.190002Z" fill="white" stroke="black" stroke-width="0.39" stroke-miterlimit="10"/>
<path d="M340.19 0.190002H322.69V16.07H340.19V0.190002Z" fill="black" stroke="black" stroke-width="0.39" stroke-miterlimit="10"/>
<path d="M287.69 16.08H270.19V31.96H287.69V16.08Z" fill="black" stroke="black" stroke-width="0.39" stroke-miterlimit="10"/>
<path d="M305.19 16.08H287.69V31.96H305.19V16.08Z" fill="white" stroke="black" stroke-width="0.39" stroke-miterlimit="10"/>
<path d="M322.69 16.08H305.19V31.96H322.69V16.08Z" fill="black" stroke="black" stroke-width="0.39" stroke-miterlimit="10"/>
<path d="M340.19 16.08H322.69V31.96H340.19V16.08Z" fill="white" stroke="black" stroke-width="0.39" stroke-miterlimit="10"/>
<path d="M287.69 31.96H270.19V47.84H287.69V31.96Z" fill="white" stroke="black" stroke-width="0.39" stroke-miterlimit="10"/>
<path d="M305.19 31.96H287.69V47.84H305.19V31.96Z" fill="black" stroke="black" stroke-width="0.39" stroke-miterlimit="10"/>
<path d="M322.69 31.96H305.19V47.84H322.69V31.96Z" fill="white" stroke="black" stroke-width="0.39" stroke-miterlimit="10"/>
<path d="M340.19 31.96H322.69V47.84H340.19V31.96Z" fill="black" stroke="black" stroke-width="0.39" stroke-miterlimit="10"/>
</g>
<g clip-path="url(#clip5_5_228)">
<path d="M357.69 0.190002H340.19V16.07H357.69V0.190002Z" fill="white" stroke="black" stroke-width="0.39" stroke-miterlimit="10"/>
<path d="M375.19 0.190002H357.69V16.07H375.19V0.190002Z" fill="black" stroke="black" stroke-width="0.39" stroke-miterlimit="10"/>
<path d="M392.69 0.190002H375.19V16.07H392.69V0.190002Z" fill="white" stroke="black" stroke-width="0.39" stroke-miterlimit="10"/>
<path d="M357.69 16.08H340.19V31.96H357.69V16.08Z" fill="black" stroke="black" stroke-width="0.39" stroke-miterlimit="10"/>
<path d="M375.19 16.08H357.69V31.96H375.19V16.08Z" fill="white" stroke="black" stroke-width="0.39" stroke-miterlimit="10"/>
<path d="M392.69 16.08H375.19V31.96H392.69V16.08Z" fill="black" stroke="black" stroke-width="0.39" stroke-miterlimit="10"/>
<path d="M357.69 31.96H340.19V47.84H357.69V31.96Z" fill="white" stroke="black" stroke-width="0.39" stroke-miterlimit="10"/>
<path d="M375.19 31.96H357.69V47.84H375.19V31.96Z" fill="black" stroke="black" stroke-width="0.39" stroke-miterlimit="10"/>
<path d="M392.69 31.96H375.19V47.84H392.69V31.96Z" fill="white" stroke="black" stroke-width="0.39" stroke-miterlimit="10"/>
</g>
<defs>
<clipPath id="clip0_5_228">
<rect width="70.39" height="48.03" fill="white" transform="translate(-10)"/>
</clipPath>
<clipPath id="clip1_5_228">
<rect width="70.39" height="48.03" fill="white" transform="translate(60)"/>
</clipPath>
<clipPath id="clip2_5_228">
<rect width="70.39" height="48.03" fill="white" transform="translate(130)"/>
</clipPath>
<clipPath id="clip3_5_228">
<rect width="70.39" height="48.03" fill="white" transform="translate(200)"/>
</clipPath>
<clipPath id="clip4_5_228">
<rect width="70.39" height="48.03" fill="white" transform="translate(270)"/>
</clipPath>
<clipPath id="clip5_5_228">
<rect width="70.39" height="48.03" fill="white" transform="translate(340)"/>
</clipPath>
</defs>
</svg>
