<svg width="317" height="39" viewBox="0 0 317 39" fill="none" xmlns="http://www.w3.org/2000/svg">
<g filter="url(#filter0_d_6_276)">
<rect width="312" height="34" fill="#4867D7"/>
<rect x="0.5" y="0.5" width="311" height="33" stroke="black"/>
</g>
<g filter="url(#filter1_d_6_276)">
<mask id="path-3-outside-1_6_276" maskUnits="userSpaceOnUse" x="15.9843" y="0.322902" width="279.429" height="31.8651" fill="black">
<rect fill="white" x="15.9843" y="0.322902" width="279.429" height="31.8651"/>
<path d="M40.0508 15.5657L42.5205 15.5226L42.5949 19.7859L40.1253 19.829L40.3158 30.7474L35.3766 30.8336L34.9532 6.57928L39.8925 6.49306L40.0508 15.5657ZM27.1417 16.4151C31.4423 18.4724 33.5453 22.7523 33.479 29.3845L28.7477 29.4671C28.8954 26.006 28.2193 23.0273 26.2378 21.2416C24.8833 25.5819 22.0751 28.5694 17.4727 30.0799L17.3888 25.2707C20.8674 23.4417 22.5169 19.6163 22.4111 13.5592L22.3086 7.68413L27.1698 7.59927L27.2601 12.7725C27.2824 14.0463 27.2517 15.269 27.1417 16.4151ZM65.7185 6.04227L65.7998 10.6956L68.1394 10.6547L68.2138 14.9181L65.8742 14.9589L65.9649 20.1581L61.0257 20.2443L60.7793 6.12848L65.7185 6.04227ZM48.5621 16.8213L59.6104 16.6285L59.6689 19.982L43.5774 20.2629L43.434 12.0481L52.6366 11.8875L52.6062 10.1457L43.4036 10.3064L43.3441 6.90089L57.564 6.65268L57.7078 14.8934L48.5312 15.0536L48.5621 16.8213ZM66.2979 30.2939L44.9291 30.6668L44.7681 21.4383L66.1368 21.0653L66.2979 30.2939ZM61.3327 24.4256L49.6865 24.6289L49.7328 27.2805L61.379 27.0772L61.3327 24.4256ZM69.4193 10.2943L69.4175 10.1903C69.3708 7.51275 71.1655 6.05121 74.389 5.99494L86.8411 5.77759C90.0647 5.72132 91.9353 7.11889 91.9821 9.79648L91.9839 9.90046C92.0302 12.5521 90.2099 14.0401 86.9864 14.0963L74.5342 14.3137C71.3107 14.3699 69.4656 12.9459 69.4193 10.2943ZM86.9662 9.96204L86.9657 9.93605C86.9567 9.41613 86.6384 9.05763 85.9365 9.06988L75.4341 9.2532C74.7062 9.2659 74.4266 9.63484 74.4356 10.1548L74.4361 10.1808C74.4452 10.7007 74.737 11.0336 75.4649 11.0209L85.9673 10.8376C86.6692 10.8254 86.9753 10.482 86.9662 9.96204ZM68.8333 15.4533L92.7496 15.0359L92.8082 18.3894L68.8918 18.8068L68.8333 15.4533ZM92.5659 29.8353L69.8453 30.2319L69.7328 23.7849L86.6822 23.4891L86.6636 22.4232L69.7142 22.7191L69.6657 19.9375L91.9703 19.5482L92.0823 25.9692L75.1329 26.265L75.1515 27.3309L92.5169 27.0278L92.5659 29.8353ZM117.754 18.552L113.179 18.6319C113.093 16.6831 111.488 15.6189 109.57 16.0165C107.781 17.764 105.071 18.9294 101.874 19.0113L101.81 15.3978C104.9 15.1098 107.08 13.3555 107.171 11.1436L101.868 11.2362L101.802 7.49274L106.976 7.40244L106.938 5.21877L111.695 5.13573L111.733 7.3194L117.01 7.22729L117.075 10.9707L111.746 11.0637C111.729 11.5841 111.66 12.1054 111.539 12.6016C115.023 12.5668 117.711 14.6002 117.754 18.552ZM124.097 5.02327L124.173 9.4166L126.513 9.37577L126.588 13.6391L124.248 13.68L124.332 18.4892L119.393 18.5754L119.158 5.10949L124.097 5.02327ZM116.192 24.4042C120.397 23.9667 124.611 25.5574 125.82 29.2549L120.439 29.3488C119.135 27.6553 116.648 26.7106 113.716 27.0998C111.121 28.8874 107.21 29.7618 102.998 29.7833L102.938 26.3518C106.993 26.255 110.694 25.2803 111.931 23.1264L103.196 23.2788L103.137 19.8993L124.61 19.5245L124.669 22.904L116.714 23.0429C116.593 23.5391 116.419 23.9842 116.192 24.4042ZM149.821 13.6496L152.291 13.6065L152.365 17.8699L149.896 17.913L150.086 28.8313L145.147 28.9175L144.724 4.66323L149.663 4.57701L149.821 13.6496ZM134.72 5.09789C138.931 5.02438 141.963 7.41582 142.04 11.8352L142.211 21.6097C142.288 26.029 139.341 28.5248 135.156 28.5979C130.919 28.6718 127.886 26.2804 127.809 21.861L127.639 12.0865C127.562 7.69321 130.482 5.17185 134.72 5.09789ZM137.461 22.1346L137.275 11.4503C137.247 9.8645 136.14 9.02569 134.789 9.07528C133.412 9.12533 132.36 9.97581 132.388 11.5356L132.574 22.2199C132.603 23.8577 133.683 24.645 135.06 24.6209C136.412 24.5973 137.49 23.7724 137.461 22.1346ZM175.517 13.2011L177.987 13.158L178.061 17.4214L175.592 17.4645L175.782 28.3828L170.843 28.469L170.42 4.2147L175.359 4.12849L175.517 13.2011ZM167.462 18.0224L158.39 18.1808L158.484 23.588L169.272 23.3997L169.342 27.403L153.641 27.6771L153.407 14.2892L162.48 14.1308L162.394 9.24353L153.53 9.39827L153.458 5.31689L167.236 5.07639L167.462 18.0224ZM184.51 21.1834L179.467 21.2714L179.182 4.9459L184.225 4.85787L184.51 21.1834ZM184.624 27.7084L179.581 27.7964L179.494 22.8052L184.537 22.7171L184.624 27.7084ZM212.162 3.48608L217.102 3.39986L217.339 16.9958L212.4 17.082L212.162 3.48608ZM204.42 3.88126L208.944 3.80231L209.166 16.5404L194.478 16.7967L194.256 4.05868L198.831 3.97882L198.876 6.55243L204.465 6.45487L204.42 3.88126ZM198.936 10.0099L198.99 13.0774L204.579 12.9799L204.525 9.91234L198.936 10.0099ZM200.846 18.0898L212.128 17.8929C215.741 17.8298 217.674 19.8244 217.726 22.7619C217.777 25.6995 215.915 27.7603 212.301 27.8234L201.019 28.0203C197.354 28.0843 195.472 26.0368 195.421 23.1513C195.371 20.2657 197.18 18.1538 200.846 18.0898ZM202.261 24.6701L210.943 24.5186C212.139 24.4977 212.726 23.8374 212.709 22.8495C212.691 21.8617 212.082 21.1962 210.886 21.2171L202.203 21.3686C201.033 21.389 200.421 22.0758 200.438 23.0637C200.456 24.0515 201.091 24.6905 202.261 24.6701ZM237.229 10.1996L237.189 7.88598L220.344 8.18002L220.27 3.96865L241.977 3.58976L242.091 10.1148C242.159 14.0142 241.862 16.3857 240.956 19.6L235.939 19.6876C236.922 16.4459 237.289 13.6311 237.229 10.1996ZM232.103 12.9935L232.274 22.742L243.66 22.5433L243.73 26.5467L219.813 26.9641L219.744 22.9607L227.23 22.8301L227.06 13.0815L232.103 12.9935ZM256.834 12.3278L258.913 12.2915L258.745 2.67297L263.035 2.5981L263.458 26.8524L259.169 26.9273L258.982 16.2169L256.382 16.2623C255.129 21.953 251.24 25.5834 245.59 26.6442L245.512 22.1729C249.676 20.878 252.453 17.5791 252.351 11.756L252.281 7.75257L245.392 7.87281L245.32 3.73944L256.68 3.54115L256.822 11.6519L256.834 12.3278ZM265.018 26.8252L264.595 2.57088L268.884 2.496L269.307 26.7503L265.018 26.8252ZM294.423 15.3903L289.484 15.4765L289.251 2.1405L294.19 2.05428L294.423 15.3903ZM271.39 9.81138L271.364 8.32961C271.298 4.56018 274.383 2.53003 278.647 2.45561C282.936 2.38074 286.09 4.276 286.156 8.07142L286.182 9.55319C286.248 13.3486 283.162 15.3528 278.899 15.4272C274.636 15.5016 271.456 13.6068 271.39 9.81138ZM276.173 8.24566L276.199 9.72744C276.221 10.9752 277.199 11.8683 278.81 11.8402C280.422 11.8121 281.394 10.8849 281.372 9.63714L281.347 8.15536C281.325 6.90755 280.321 5.98894 278.709 6.04307C277.098 6.0972 276.152 6.99785 276.173 8.24566ZM294.639 26.3081L272.751 26.6902L272.576 16.6817L294.465 16.2997L294.639 26.3081ZM277.495 19.9244L277.553 23.2519L289.72 23.0395L289.661 19.712L277.495 19.9244Z"/>
</mask>
<path d="M40.0508 15.5657L42.5205 15.5226L42.5949 19.7859L40.1253 19.829L40.3158 30.7474L35.3766 30.8336L34.9532 6.57928L39.8925 6.49306L40.0508 15.5657ZM27.1417 16.4151C31.4423 18.4724 33.5453 22.7523 33.479 29.3845L28.7477 29.4671C28.8954 26.006 28.2193 23.0273 26.2378 21.2416C24.8833 25.5819 22.0751 28.5694 17.4727 30.0799L17.3888 25.2707C20.8674 23.4417 22.5169 19.6163 22.4111 13.5592L22.3086 7.68413L27.1698 7.59927L27.2601 12.7725C27.2824 14.0463 27.2517 15.269 27.1417 16.4151ZM65.7185 6.04227L65.7998 10.6956L68.1394 10.6547L68.2138 14.9181L65.8742 14.9589L65.9649 20.1581L61.0257 20.2443L60.7793 6.12848L65.7185 6.04227ZM48.5621 16.8213L59.6104 16.6285L59.6689 19.982L43.5774 20.2629L43.434 12.0481L52.6366 11.8875L52.6062 10.1457L43.4036 10.3064L43.3441 6.90089L57.564 6.65268L57.7078 14.8934L48.5312 15.0536L48.5621 16.8213ZM66.2979 30.2939L44.9291 30.6668L44.7681 21.4383L66.1368 21.0653L66.2979 30.2939ZM61.3327 24.4256L49.6865 24.6289L49.7328 27.2805L61.379 27.0772L61.3327 24.4256ZM69.4193 10.2943L69.4175 10.1903C69.3708 7.51275 71.1655 6.05121 74.389 5.99494L86.8411 5.77759C90.0647 5.72132 91.9353 7.11889 91.9821 9.79648L91.9839 9.90046C92.0302 12.5521 90.2099 14.0401 86.9864 14.0963L74.5342 14.3137C71.3107 14.3699 69.4656 12.9459 69.4193 10.2943ZM86.9662 9.96204L86.9657 9.93605C86.9567 9.41613 86.6384 9.05763 85.9365 9.06988L75.4341 9.2532C74.7062 9.2659 74.4266 9.63484 74.4356 10.1548L74.4361 10.1808C74.4452 10.7007 74.737 11.0336 75.4649 11.0209L85.9673 10.8376C86.6692 10.8254 86.9753 10.482 86.9662 9.96204ZM68.8333 15.4533L92.7496 15.0359L92.8082 18.3894L68.8918 18.8068L68.8333 15.4533ZM92.5659 29.8353L69.8453 30.2319L69.7328 23.7849L86.6822 23.4891L86.6636 22.4232L69.7142 22.7191L69.6657 19.9375L91.9703 19.5482L92.0823 25.9692L75.1329 26.265L75.1515 27.3309L92.5169 27.0278L92.5659 29.8353ZM117.754 18.552L113.179 18.6319C113.093 16.6831 111.488 15.6189 109.57 16.0165C107.781 17.764 105.071 18.9294 101.874 19.0113L101.81 15.3978C104.9 15.1098 107.08 13.3555 107.171 11.1436L101.868 11.2362L101.802 7.49274L106.976 7.40244L106.938 5.21877L111.695 5.13573L111.733 7.3194L117.01 7.22729L117.075 10.9707L111.746 11.0637C111.729 11.5841 111.66 12.1054 111.539 12.6016C115.023 12.5668 117.711 14.6002 117.754 18.552ZM124.097 5.02327L124.173 9.4166L126.513 9.37577L126.588 13.6391L124.248 13.68L124.332 18.4892L119.393 18.5754L119.158 5.10949L124.097 5.02327ZM116.192 24.4042C120.397 23.9667 124.611 25.5574 125.82 29.2549L120.439 29.3488C119.135 27.6553 116.648 26.7106 113.716 27.0998C111.121 28.8874 107.21 29.7618 102.998 29.7833L102.938 26.3518C106.993 26.255 110.694 25.2803 111.931 23.1264L103.196 23.2788L103.137 19.8993L124.61 19.5245L124.669 22.904L116.714 23.0429C116.593 23.5391 116.419 23.9842 116.192 24.4042ZM149.821 13.6496L152.291 13.6065L152.365 17.8699L149.896 17.913L150.086 28.8313L145.147 28.9175L144.724 4.66323L149.663 4.57701L149.821 13.6496ZM134.72 5.09789C138.931 5.02438 141.963 7.41582 142.04 11.8352L142.211 21.6097C142.288 26.029 139.341 28.5248 135.156 28.5979C130.919 28.6718 127.886 26.2804 127.809 21.861L127.639 12.0865C127.562 7.69321 130.482 5.17185 134.72 5.09789ZM137.461 22.1346L137.275 11.4503C137.247 9.8645 136.14 9.02569 134.789 9.07528C133.412 9.12533 132.36 9.97581 132.388 11.5356L132.574 22.2199C132.603 23.8577 133.683 24.645 135.06 24.6209C136.412 24.5973 137.49 23.7724 137.461 22.1346ZM175.517 13.2011L177.987 13.158L178.061 17.4214L175.592 17.4645L175.782 28.3828L170.843 28.469L170.42 4.2147L175.359 4.12849L175.517 13.2011ZM167.462 18.0224L158.39 18.1808L158.484 23.588L169.272 23.3997L169.342 27.403L153.641 27.6771L153.407 14.2892L162.48 14.1308L162.394 9.24353L153.53 9.39827L153.458 5.31689L167.236 5.07639L167.462 18.0224ZM184.51 21.1834L179.467 21.2714L179.182 4.9459L184.225 4.85787L184.51 21.1834ZM184.624 27.7084L179.581 27.7964L179.494 22.8052L184.537 22.7171L184.624 27.7084ZM212.162 3.48608L217.102 3.39986L217.339 16.9958L212.4 17.082L212.162 3.48608ZM204.42 3.88126L208.944 3.80231L209.166 16.5404L194.478 16.7967L194.256 4.05868L198.831 3.97882L198.876 6.55243L204.465 6.45487L204.42 3.88126ZM198.936 10.0099L198.99 13.0774L204.579 12.9799L204.525 9.91234L198.936 10.0099ZM200.846 18.0898L212.128 17.8929C215.741 17.8298 217.674 19.8244 217.726 22.7619C217.777 25.6995 215.915 27.7603 212.301 27.8234L201.019 28.0203C197.354 28.0843 195.472 26.0368 195.421 23.1513C195.371 20.2657 197.18 18.1538 200.846 18.0898ZM202.261 24.6701L210.943 24.5186C212.139 24.4977 212.726 23.8374 212.709 22.8495C212.691 21.8617 212.082 21.1962 210.886 21.2171L202.203 21.3686C201.033 21.389 200.421 22.0758 200.438 23.0637C200.456 24.0515 201.091 24.6905 202.261 24.6701ZM237.229 10.1996L237.189 7.88598L220.344 8.18002L220.27 3.96865L241.977 3.58976L242.091 10.1148C242.159 14.0142 241.862 16.3857 240.956 19.6L235.939 19.6876C236.922 16.4459 237.289 13.6311 237.229 10.1996ZM232.103 12.9935L232.274 22.742L243.66 22.5433L243.73 26.5467L219.813 26.9641L219.744 22.9607L227.23 22.8301L227.06 13.0815L232.103 12.9935ZM256.834 12.3278L258.913 12.2915L258.745 2.67297L263.035 2.5981L263.458 26.8524L259.169 26.9273L258.982 16.2169L256.382 16.2623C255.129 21.953 251.24 25.5834 245.59 26.6442L245.512 22.1729C249.676 20.878 252.453 17.5791 252.351 11.756L252.281 7.75257L245.392 7.87281L245.32 3.73944L256.68 3.54115L256.822 11.6519L256.834 12.3278ZM265.018 26.8252L264.595 2.57088L268.884 2.496L269.307 26.7503L265.018 26.8252ZM294.423 15.3903L289.484 15.4765L289.251 2.1405L294.19 2.05428L294.423 15.3903ZM271.39 9.81138L271.364 8.32961C271.298 4.56018 274.383 2.53003 278.647 2.45561C282.936 2.38074 286.09 4.276 286.156 8.07142L286.182 9.55319C286.248 13.3486 283.162 15.3528 278.899 15.4272C274.636 15.5016 271.456 13.6068 271.39 9.81138ZM276.173 8.24566L276.199 9.72744C276.221 10.9752 277.199 11.8683 278.81 11.8402C280.422 11.8121 281.394 10.8849 281.372 9.63714L281.347 8.15536C281.325 6.90755 280.321 5.98894 278.709 6.04307C277.098 6.0972 276.152 6.99785 276.173 8.24566ZM294.639 26.3081L272.751 26.6902L272.576 16.6817L294.465 16.2997L294.639 26.3081ZM277.495 19.9244L277.553 23.2519L289.72 23.0395L289.661 19.712L277.495 19.9244Z" fill="white"/>
<path d="M40.0508 15.5657L39.351 15.5779L39.3632 16.2778L40.0631 16.2656L40.0508 15.5657ZM42.5205 15.5226L43.2204 15.5104L43.2081 14.8105L42.5083 14.8227L42.5205 15.5226ZM42.5949 19.7859L42.6071 20.4858L43.307 20.4736L43.2948 19.7737L42.5949 19.7859ZM40.1253 19.829L40.113 19.1291L39.4132 19.1414L39.4254 19.8413L40.1253 19.829ZM40.3158 30.7474L40.3281 31.4473L41.028 31.435L41.0157 30.7352L40.3158 30.7474ZM35.3766 30.8336L34.6767 30.8458L34.6889 31.5457L35.3888 31.5335L35.3766 30.8336ZM34.9532 6.57928L34.941 5.87939L34.2411 5.8916L34.2533 6.5915L34.9532 6.57928ZM39.8925 6.49306L40.5924 6.48085L40.5802 5.78095L39.8803 5.79317L39.8925 6.49306ZM27.1417 16.4151L26.4449 16.3482L26.3981 16.8354L26.8396 17.0466L27.1417 16.4151ZM33.479 29.3845L33.4912 30.0844L34.1722 30.0725L34.179 29.3915L33.479 29.3845ZM28.7477 29.4671L28.0484 29.4372L28.0167 30.1799L28.76 30.167L28.7477 29.4671ZM26.2378 21.2416L26.7064 20.7216L25.895 19.9904L25.5696 21.0331L26.2378 21.2416ZM17.4727 30.0799L16.7728 30.0922L16.7894 31.041L17.691 30.745L17.4727 30.0799ZM17.3888 25.2707L17.063 24.6511L16.6813 24.8518L16.6889 25.2829L17.3888 25.2707ZM22.3086 7.68413L22.2964 6.98423L21.5965 6.99645L21.6087 7.69634L22.3086 7.68413ZM27.1698 7.59927L27.8697 7.58706L27.8575 6.88716L27.1576 6.89938L27.1698 7.59927ZM40.0631 16.2656L42.5327 16.2225L42.5083 14.8227L40.0386 14.8658L40.0631 16.2656ZM41.8206 15.5348L41.895 19.7981L43.2948 19.7737L43.2204 15.5104L41.8206 15.5348ZM42.5827 19.086L40.113 19.1291L40.1375 20.5289L42.6071 20.4858L42.5827 19.086ZM39.4254 19.8413L39.6159 30.7596L41.0157 30.7352L40.8252 19.8168L39.4254 19.8413ZM40.3036 30.0475L35.3644 30.1337L35.3888 31.5335L40.3281 31.4473L40.3036 30.0475ZM36.0765 30.8214L35.6531 6.56706L34.2533 6.5915L34.6767 30.8458L36.0765 30.8214ZM34.9655 7.27917L39.9047 7.19296L39.8803 5.79317L34.941 5.87939L34.9655 7.27917ZM39.1926 6.50528L39.351 15.5779L40.7507 15.5535L40.5924 6.48085L39.1926 6.50528ZM26.8396 17.0466C30.801 18.9416 32.8438 22.8954 32.779 29.3775L34.179 29.3915C34.2467 22.6093 32.0835 18.0031 27.4438 15.7836L26.8396 17.0466ZM33.4668 28.6846L28.7355 28.7672L28.76 30.167L33.4912 30.0844L33.4668 28.6846ZM29.4471 29.4969C29.5977 25.9668 28.9231 22.7193 26.7064 20.7216L25.7692 21.7616C27.5154 23.3353 28.193 26.0451 28.0484 29.4372L29.4471 29.4969ZM25.5696 21.0331C24.2814 25.1609 21.6384 27.976 17.2544 29.4148L17.691 30.745C22.5117 29.1628 25.4853 26.0029 26.906 21.4501L25.5696 21.0331ZM18.1726 30.0677L18.0887 25.2585L16.6889 25.2829L16.7728 30.0922L18.1726 30.0677ZM17.7145 25.8902C21.5389 23.8795 23.2187 19.7126 23.111 13.547L21.7112 13.5714C21.8151 19.52 20.1958 23.0039 17.063 24.6511L17.7145 25.8902ZM23.111 13.547L23.0085 7.67191L21.6087 7.69634L21.7112 13.5714L23.111 13.547ZM22.3208 8.38402L27.1821 8.29917L27.1576 6.89938L22.2964 6.98423L22.3208 8.38402ZM26.47 7.61149L26.5603 12.7847L27.96 12.7603L27.8697 7.58706L26.47 7.61149ZM26.5603 12.7847C26.5822 14.0406 26.5517 15.2357 26.4449 16.3482L27.8385 16.482C27.9517 15.3023 27.9826 14.052 27.96 12.7603L26.5603 12.7847ZM65.7185 6.04227L66.4184 6.03005L66.4062 5.33016L65.7063 5.34237L65.7185 6.04227ZM65.7998 10.6956L65.0999 10.7078L65.1121 11.4077L65.812 11.3955L65.7998 10.6956ZM68.1394 10.6547L68.8393 10.6425L68.8271 9.94261L68.1272 9.95483L68.1394 10.6547ZM68.2138 14.9181L68.226 15.618L68.9259 15.6058L68.9137 14.9059L68.2138 14.9181ZM65.8742 14.9589L65.862 14.259L65.1621 14.2712L65.1743 14.9711L65.8742 14.9589ZM65.9649 20.1581L65.9772 20.858L66.6771 20.8458L66.6648 20.1459L65.9649 20.1581ZM61.0257 20.2443L60.3258 20.2566L60.338 20.9564L61.0379 20.9442L61.0257 20.2443ZM60.7793 6.12848L60.7671 5.42859L60.0672 5.44081L60.0794 6.1407L60.7793 6.12848ZM48.5621 16.8213L47.8622 16.8335L47.8744 17.5334L48.5743 17.5212L48.5621 16.8213ZM59.6104 16.6285L60.3103 16.6163L60.2981 15.9164L59.5982 15.9286L59.6104 16.6285ZM59.6689 19.982L59.6811 20.6819L60.381 20.6697L60.3688 19.9698L59.6689 19.982ZM43.5774 20.2629L42.8775 20.2751L42.8897 20.975L43.5896 20.9627L43.5774 20.2629ZM43.434 12.0481L43.4218 11.3482L42.7219 11.3604L42.7341 12.0603L43.434 12.0481ZM52.6366 11.8875L52.6488 12.5874L53.3487 12.5751L53.3365 11.8753L52.6366 11.8875ZM52.6062 10.1457L53.3061 10.1335L53.2938 9.43363L52.594 9.44584L52.6062 10.1457ZM43.4036 10.3064L42.7037 10.3186L42.7159 11.0185L43.4158 11.0063L43.4036 10.3064ZM43.3441 6.90089L43.3319 6.20099L42.632 6.21321L42.6442 6.9131L43.3441 6.90089ZM57.564 6.65268L58.2639 6.64046L58.2516 5.94057L57.5517 5.95279L57.564 6.65268ZM57.7078 14.8934L57.72 15.5933L58.4199 15.5811L58.4077 14.8812L57.7078 14.8934ZM48.5312 15.0536L48.519 14.3537L47.8191 14.3659L47.8313 15.0658L48.5312 15.0536ZM66.2979 30.2939L66.3101 30.9937L67.01 30.9815L66.9978 30.2816L66.2979 30.2939ZM44.9291 30.6668L44.2292 30.6791L44.2415 31.379L44.9414 31.3667L44.9291 30.6668ZM44.7681 21.4383L44.7558 20.7384L44.0559 20.7506L44.0682 21.4505L44.7681 21.4383ZM66.1368 21.0653L66.8367 21.053L66.8245 20.3531L66.1246 20.3654L66.1368 21.0653ZM61.3327 24.4256L62.0326 24.4134L62.0204 23.7135L61.3205 23.7257L61.3327 24.4256ZM49.6865 24.6289L49.6743 23.929L48.9744 23.9412L48.9866 24.6411L49.6865 24.6289ZM49.7328 27.2805L49.0329 27.2927L49.0451 27.9926L49.745 27.9804L49.7328 27.2805ZM61.379 27.0772L61.3912 27.7771L62.0911 27.7649L62.0789 27.065L61.379 27.0772ZM65.0187 6.05448L65.0999 10.7078L66.4997 10.6833L66.4184 6.03005L65.0187 6.05448ZM65.812 11.3955L68.1516 11.3546L68.1272 9.95483L65.7876 9.99567L65.812 11.3955ZM67.4395 10.6669L67.5139 14.9303L68.9137 14.9059L68.8393 10.6425L67.4395 10.6669ZM68.2016 14.2182L65.862 14.259L65.8864 15.6588L68.226 15.618L68.2016 14.2182ZM65.1743 14.9711L65.265 20.1703L66.6648 20.1459L66.5741 14.9467L65.1743 14.9711ZM65.9527 19.4582L61.0135 19.5444L61.0379 20.9442L65.9772 20.858L65.9527 19.4582ZM61.7256 20.2321L61.4792 6.11627L60.0794 6.1407L60.3258 20.2566L61.7256 20.2321ZM60.7915 6.82838L65.7308 6.74216L65.7063 5.34237L60.7671 5.42859L60.7915 6.82838ZM48.5743 17.5212L59.6226 17.3284L59.5982 15.9286L48.5498 16.1214L48.5743 17.5212ZM58.9105 16.6407L58.969 19.9942L60.3688 19.9698L60.3103 16.6163L58.9105 16.6407ZM59.6567 19.2821L43.5651 19.563L43.5896 20.9627L59.6811 20.6819L59.6567 19.2821ZM44.2773 20.2506L44.1339 12.0359L42.7341 12.0603L42.8775 20.2751L44.2773 20.2506ZM43.4462 12.748L52.6488 12.5874L52.6244 11.1876L43.4218 11.3482L43.4462 12.748ZM53.3365 11.8753L53.3061 10.1335L51.9063 10.158L51.9367 11.8997L53.3365 11.8753ZM52.594 9.44584L43.3914 9.60648L43.4158 11.0063L52.6184 10.8456L52.594 9.44584ZM44.1035 10.2942L44.044 6.88867L42.6442 6.9131L42.7037 10.3186L44.1035 10.2942ZM43.3563 7.60078L57.5762 7.35257L57.5517 5.95279L43.3319 6.20099L43.3563 7.60078ZM56.8641 6.6649L57.0079 14.9056L58.4077 14.8812L58.2639 6.64046L56.8641 6.6649ZM57.6956 14.1935L48.519 14.3537L48.5434 15.7535L57.72 15.5933L57.6956 14.1935ZM47.8313 15.0658L47.8622 16.8335L49.2619 16.8091L49.2311 15.0414L47.8313 15.0658ZM66.2857 29.594L44.9169 29.967L44.9414 31.3667L66.3101 30.9937L66.2857 29.594ZM45.629 30.6546L45.4679 21.426L44.0682 21.4505L44.2292 30.6791L45.629 30.6546ZM44.7803 22.1381L66.149 21.7652L66.1246 20.3654L44.7558 20.7384L44.7803 22.1381ZM65.4369 21.0775L65.598 30.3061L66.9978 30.2816L66.8367 21.053L65.4369 21.0775ZM61.3205 23.7257L49.6743 23.929L49.6987 25.3288L61.3449 25.1255L61.3205 23.7257ZM48.9866 24.6411L49.0329 27.2927L50.4327 27.2683L50.3864 24.6167L48.9866 24.6411ZM49.745 27.9804L61.3912 27.7771L61.3668 26.3773L49.7206 26.5806L49.745 27.9804ZM62.0789 27.065L62.0326 24.4134L60.6328 24.4378L60.6791 27.0894L62.0789 27.065ZM68.8333 15.4533L68.8211 14.7534L68.1212 14.7657L68.1334 15.4656L68.8333 15.4533ZM92.7496 15.0359L93.4495 15.0237L93.4373 14.3238L92.7374 14.336L92.7496 15.0359ZM92.8082 18.3894L92.8204 19.0893L93.5203 19.077L93.5081 18.3772L92.8082 18.3894ZM68.8918 18.8068L68.1919 18.819L68.2041 19.5189L68.904 19.5067L68.8918 18.8068ZM92.5659 29.8353L92.5781 30.5352L93.278 30.523L93.2658 29.8231L92.5659 29.8353ZM69.8453 30.2319L69.1455 30.2441L69.1577 30.944L69.8576 30.9318L69.8453 30.2319ZM69.7328 23.7849L69.7206 23.085L69.0207 23.0972L69.0329 23.7971L69.7328 23.7849ZM86.6822 23.4891L86.6944 24.189L87.3943 24.1767L87.3821 23.4768L86.6822 23.4891ZM86.6636 22.4232L87.3635 22.411L87.3513 21.7111L86.6514 21.7233L86.6636 22.4232ZM69.7142 22.7191L69.0143 22.7313L69.0265 23.4312L69.7264 23.419L69.7142 22.7191ZM69.6657 19.9375L69.6534 19.2376L68.9535 19.2498L68.9658 19.9497L69.6657 19.9375ZM91.9703 19.5482L92.6702 19.536L92.6579 18.8361L91.958 18.8483L91.9703 19.5482ZM92.0823 25.9692L92.0946 26.6691L92.7944 26.6569L92.7822 25.957L92.0823 25.9692ZM75.1329 26.265L75.1207 25.5652L74.4208 25.5774L74.433 26.2773L75.1329 26.265ZM75.1515 27.3309L74.4516 27.3431L74.4638 28.043L75.1637 28.0308L75.1515 27.3309ZM92.5169 27.0278L93.2168 27.0156L93.2046 26.3157L92.5047 26.3279L92.5169 27.0278ZM70.1192 10.2821L70.1174 10.1781L68.7176 10.2026L68.7194 10.3065L70.1192 10.2821ZM70.1174 10.1781C70.097 9.01061 70.4711 8.19415 71.1259 7.64668C71.8044 7.07943 72.8796 6.72139 74.4013 6.69483L74.3768 5.29505C72.675 5.32475 71.241 5.72563 70.2279 6.57261C69.1912 7.43938 68.6913 8.69248 68.7176 10.2026L70.1174 10.1781ZM74.4013 6.69483L86.8534 6.47748L86.8289 5.07769L74.3768 5.29505L74.4013 6.69483ZM86.8534 6.47748C88.3749 6.45092 89.4698 6.77105 90.175 7.3158C90.8553 7.84138 91.2619 8.64447 91.2822 9.80869L92.682 9.78426C92.6555 8.27089 92.1034 7.03641 91.0308 6.20788C89.9831 5.39851 88.5309 5.04799 86.8289 5.07769L86.8534 6.47748ZM91.2822 9.80869L91.284 9.91268L92.6838 9.88825L92.682 9.78426L91.2822 9.80869ZM91.284 9.91268C91.3041 11.0622 90.9269 11.8805 90.2631 12.434C89.5764 13.0065 88.493 13.3699 86.9741 13.3964L86.9986 14.7962C88.7032 14.7665 90.1418 14.3578 91.1595 13.5093C92.2001 12.6418 92.71 11.3903 92.6838 9.88825L91.284 9.91268ZM86.9741 13.3964L74.522 13.6138L74.5465 15.0136L86.9986 14.7962L86.9741 13.3964ZM74.522 13.6138C73.0031 13.6403 71.9155 13.3147 71.2166 12.7681C70.5406 12.2394 70.1393 11.4349 70.1192 10.2821L68.7194 10.3065C68.7456 11.8053 69.29 13.0386 70.3541 13.8708C71.3951 14.685 72.8419 15.0433 74.5465 15.0136L74.522 13.6138ZM87.6661 9.94983L87.6656 9.92383L86.2658 9.94826L86.2663 9.97426L87.6661 9.94983ZM87.6656 9.92383C87.6587 9.52359 87.5278 9.09989 87.1817 8.78536C86.8409 8.47569 86.3903 8.36185 85.9242 8.36998L85.9487 9.76977C86.065 9.76774 86.1402 9.78166 86.1843 9.79537C86.2263 9.80843 86.2395 9.8209 86.2401 9.82143C86.2402 9.82149 86.2435 9.82352 86.2488 9.83683C86.255 9.85256 86.2648 9.88733 86.2658 9.94826L87.6656 9.92383ZM85.9242 8.36998L75.4219 8.5533L75.4463 9.95309L85.9487 9.76977L85.9242 8.36998ZM75.4219 8.5533C74.9495 8.56155 74.4963 8.68794 74.165 9.01734C73.8294 9.35092 73.729 9.78252 73.7358 10.167L75.1355 10.1425C75.1332 10.0071 75.1681 9.99425 75.152 10.0102C75.1402 10.022 75.1907 9.95755 75.4463 9.95309L75.4219 8.5533ZM73.7358 10.167L73.7362 10.193L75.136 10.1685L75.1355 10.1425L73.7358 10.167ZM73.7362 10.193C73.7429 10.5786 73.8594 11.0071 74.2161 11.3239C74.5619 11.6311 75.0175 11.7288 75.4771 11.7208L75.4527 10.321C75.1845 10.3257 75.1302 10.2633 75.1458 10.2772C75.1724 10.3008 75.1383 10.3028 75.136 10.1685L73.7362 10.193ZM75.4771 11.7208L85.9795 11.5375L85.9551 10.1377L75.4527 10.321L75.4771 11.7208ZM85.9795 11.5375C86.4328 11.5296 86.8779 11.4131 87.2112 11.1017C87.5557 10.7799 87.6731 10.3517 87.6661 9.94983L86.2663 9.97426C86.2674 10.0353 86.2587 10.0666 86.2548 10.0771C86.2521 10.0846 86.2522 10.0818 86.2555 10.0787C86.2626 10.072 86.2037 10.1334 85.9551 10.1377L85.9795 11.5375ZM68.8455 16.1532L92.7618 15.7358L92.7374 14.336L68.8211 14.7534L68.8455 16.1532ZM92.0497 15.0481L92.1083 18.4016L93.5081 18.3772L93.4495 15.0237L92.0497 15.0481ZM92.7959 17.6895L68.8796 18.1069L68.904 19.5067L92.8204 19.0893L92.7959 17.6895ZM69.5917 18.7946L69.5332 15.4411L68.1334 15.4656L68.1919 18.819L69.5917 18.7946ZM92.5537 29.1355L69.8331 29.532L69.8576 30.9318L92.5781 30.5352L92.5537 29.1355ZM70.5452 30.2197L70.4327 23.7727L69.0329 23.7971L69.1455 30.2441L70.5452 30.2197ZM69.745 24.4848L86.6944 24.189L86.67 22.7892L69.7206 23.085L69.745 24.4848ZM87.3821 23.4768L87.3635 22.411L85.9637 22.4354L85.9823 23.5013L87.3821 23.4768ZM86.6514 21.7233L69.702 22.0192L69.7264 23.419L86.6758 23.1231L86.6514 21.7233ZM70.4141 22.7069L70.3655 19.9253L68.9658 19.9497L69.0143 22.7313L70.4141 22.7069ZM69.6779 20.6374L91.9825 20.2481L91.958 18.8483L69.6534 19.2376L69.6779 20.6374ZM91.2704 19.5604L91.3824 25.9814L92.7822 25.957L92.6702 19.536L91.2704 19.5604ZM92.0701 25.2693L75.1207 25.5652L75.1451 26.9649L92.0946 26.6691L92.0701 25.2693ZM74.433 26.2773L74.4516 27.3431L75.8514 27.3187L75.8328 26.2528L74.433 26.2773ZM75.1637 28.0308L92.5291 27.7277L92.5047 26.3279L75.1393 26.631L75.1637 28.0308ZM91.817 27.04L91.866 29.8476L93.2658 29.8231L93.2168 27.0156L91.817 27.04ZM117.754 18.552L117.766 19.2519L118.461 19.2398L118.454 18.5444L117.754 18.552ZM113.179 18.6319L112.479 18.6628L112.509 19.3437L113.191 19.3318L113.179 18.6319ZM109.57 16.0165L109.428 15.331L109.228 15.3726L109.081 15.5156L109.57 16.0165ZM101.874 19.0113L101.174 19.0235L101.186 19.7291L101.891 19.711L101.874 19.0113ZM101.81 15.3978L101.745 14.7008L101.099 14.7611L101.111 15.41L101.81 15.3978ZM107.171 11.1436L107.87 11.1725L107.901 10.4308L107.159 10.4437L107.171 11.1436ZM101.868 11.2362L101.168 11.2484L101.18 11.9483L101.88 11.9361L101.868 11.2362ZM101.802 7.49274L101.79 6.79285L101.09 6.80506L101.103 7.50496L101.802 7.49274ZM106.976 7.40244L106.988 8.10233L107.688 8.09012L107.676 7.39022L106.976 7.40244ZM106.938 5.21877L106.925 4.51888L106.225 4.53109L106.238 5.23099L106.938 5.21877ZM111.695 5.13573L112.395 5.12352L112.383 4.42362L111.683 4.43584L111.695 5.13573ZM111.733 7.3194L111.033 7.33162L111.045 8.03151L111.745 8.0193L111.733 7.3194ZM117.01 7.22729L117.71 7.21507L117.698 6.51518L116.998 6.52739L117.01 7.22729ZM117.075 10.9707L117.088 11.6706L117.788 11.6584L117.775 10.9585L117.075 10.9707ZM111.746 11.0637L111.734 10.3638L111.068 10.3755L111.047 11.041L111.746 11.0637ZM111.539 12.6016L110.859 12.4353L110.645 13.3106L111.546 13.3016L111.539 12.6016ZM124.097 5.02327L124.797 5.01106L124.784 4.31116L124.085 4.32338L124.097 5.02327ZM124.173 9.4166L123.474 9.42882L123.486 10.1287L124.186 10.1165L124.173 9.4166ZM126.513 9.37577L127.213 9.36355L127.201 8.66366L126.501 8.67587L126.513 9.37577ZM126.588 13.6391L126.6 14.339L127.3 14.3268L127.287 13.6269L126.588 13.6391ZM124.248 13.68L124.236 12.9801L123.536 12.9923L123.548 13.6922L124.248 13.68ZM124.332 18.4892L124.344 19.1891L125.044 19.1769L125.032 18.477L124.332 18.4892ZM119.393 18.5754L118.693 18.5877L118.705 19.2875L119.405 19.2753L119.393 18.5754ZM119.158 5.10949L119.145 4.40959L118.445 4.42181L118.458 5.1217L119.158 5.10949ZM116.192 24.4042L115.576 24.0717L114.947 25.2375L116.264 25.1004L116.192 24.4042ZM125.82 29.2549L125.832 29.9548L126.78 29.9382L126.485 29.0374L125.82 29.2549ZM120.439 29.3488L119.884 29.7758L120.099 30.0549L120.451 30.0487L120.439 29.3488ZM113.716 27.0998L113.624 26.4059L113.458 26.428L113.319 26.5233L113.716 27.0998ZM102.998 29.7833L102.298 29.7955L102.31 30.4868L103.001 30.4833L102.998 29.7833ZM102.938 26.3518L102.921 25.652L102.226 25.6686L102.238 26.364L102.938 26.3518ZM111.931 23.1264L112.538 23.4749L113.152 22.4049L111.919 22.4265L111.931 23.1264ZM103.196 23.2788L102.496 23.291L102.509 23.9909L103.208 23.9787L103.196 23.2788ZM103.137 19.8993L103.125 19.1994L102.425 19.2117L102.437 19.9116L103.137 19.8993ZM124.61 19.5245L125.31 19.5123L125.298 18.8124L124.598 18.8246L124.61 19.5245ZM124.669 22.904L124.681 23.6039L125.381 23.5917L125.369 22.8918L124.669 22.904ZM116.714 23.0429L116.702 22.343L116.162 22.3524L116.034 22.8766L116.714 23.0429ZM117.742 17.8521L113.166 17.932L113.191 19.3318L117.766 19.2519L117.742 17.8521ZM113.878 18.601C113.826 17.429 113.308 16.4677 112.465 15.8724C111.63 15.2834 110.545 15.0995 109.428 15.331L109.713 16.7019C110.513 16.5359 111.189 16.6853 111.658 17.0162C112.118 17.3408 112.445 17.886 112.479 18.6628L113.878 18.601ZM109.081 15.5156C107.431 17.1266 104.896 18.2337 101.856 18.3115L101.891 19.711C105.245 19.6252 108.13 18.4013 110.059 16.5173L109.081 15.5156ZM102.573 18.999L102.51 15.3856L101.111 15.41L101.174 19.0235L102.573 18.999ZM101.875 16.0948C105.13 15.7914 107.758 13.8918 107.87 11.1725L106.472 11.1147C106.401 12.8192 104.67 14.4283 101.745 14.7008L101.875 16.0948ZM107.159 10.4437L101.856 10.5363L101.88 11.9361L107.183 11.8435L107.159 10.4437ZM102.568 11.224L102.502 7.48052L101.103 7.50496L101.168 11.2484L102.568 11.224ZM101.815 8.19263L106.988 8.10233L106.963 6.70255L101.79 6.79285L101.815 8.19263ZM107.676 7.39022L107.637 5.20655L106.238 5.23099L106.276 7.41466L107.676 7.39022ZM106.95 5.91867L111.707 5.83563L111.683 4.43584L106.925 4.51888L106.95 5.91867ZM110.995 5.14795L111.033 7.33162L112.433 7.30719L112.395 5.12352L110.995 5.14795ZM111.745 8.0193L117.022 7.92718L116.998 6.52739L111.721 6.61951L111.745 8.0193ZM116.31 7.2395L116.376 10.9829L117.775 10.9585L117.71 7.21507L116.31 7.2395ZM117.063 10.2708L111.734 10.3638L111.759 11.7636L117.088 11.6706L117.063 10.2708ZM111.047 11.041C111.031 11.5157 110.968 11.9887 110.859 12.4353L112.219 12.7679C112.353 12.2221 112.428 11.6525 112.446 11.0865L111.047 11.041ZM111.546 13.3016C113.154 13.2855 114.514 13.7464 115.47 14.603C116.415 15.4511 117.034 16.7499 117.054 18.5596L118.454 18.5444C118.431 16.4024 117.684 14.7085 116.404 13.5607C115.134 12.4213 113.408 11.8829 111.532 11.9016L111.546 13.3016ZM123.397 5.03549L123.474 9.42882L124.873 9.40439L124.797 5.01106L123.397 5.03549ZM124.186 10.1165L126.525 10.0757L126.501 8.67587L124.161 8.71671L124.186 10.1165ZM125.813 9.38798L125.888 13.6513L127.287 13.6269L127.213 9.36355L125.813 9.38798ZM126.575 12.9392L124.236 12.9801L124.26 14.3798L126.6 14.339L126.575 12.9392ZM123.548 13.6922L123.632 18.5014L125.032 18.477L124.948 13.6677L123.548 13.6922ZM124.32 17.7893L119.38 17.8755L119.405 19.2753L124.344 19.1891L124.32 17.7893ZM120.092 18.5632L119.857 5.09727L118.458 5.1217L118.693 18.5877L120.092 18.5632ZM119.17 5.80938L124.109 5.72317L124.085 4.32338L119.145 4.40959L119.17 5.80938ZM116.264 25.1004C120.322 24.6783 124.096 26.2337 125.155 29.4724L126.485 29.0374C125.127 24.8811 120.471 23.2552 116.119 23.7079L116.264 25.1004ZM125.808 28.555L120.427 28.6489L120.451 30.0487L125.832 29.9548L125.808 28.555ZM120.993 28.9218C119.501 26.9836 116.739 25.9923 113.624 26.4059L113.809 27.7937C116.557 27.4288 118.769 28.327 119.884 29.7758L120.993 28.9218ZM113.319 26.5233C110.887 28.1987 107.137 29.0621 102.994 29.0833L103.001 30.4833C107.283 30.4614 111.355 29.576 114.114 27.6763L113.319 26.5233ZM103.698 29.7711L103.638 26.3396L102.238 26.364L102.298 29.7955L103.698 29.7711ZM102.954 27.0516C105.026 27.0022 107.038 26.7285 108.711 26.1751C110.367 25.6271 111.795 24.7694 112.538 23.4749L111.324 22.7778C110.83 23.6372 109.789 24.3438 108.271 24.8459C106.77 25.3425 104.905 25.6047 102.921 25.652L102.954 27.0516ZM111.919 22.4265L103.184 22.5789L103.208 23.9787L111.943 23.8262L111.919 22.4265ZM103.896 23.2666L103.837 19.8871L102.437 19.9116L102.496 23.291L103.896 23.2666ZM103.149 20.5992L124.622 20.2244L124.598 18.8246L103.125 19.1994L103.149 20.5992ZM123.91 19.5367L123.969 22.9162L125.369 22.8918L125.31 19.5123L123.91 19.5367ZM124.657 22.2041L116.702 22.343L116.726 23.7428L124.681 23.6039L124.657 22.2041ZM116.034 22.8766C115.927 23.3143 115.774 23.7036 115.576 24.0717L116.808 24.7367C117.063 24.2647 117.258 23.7638 117.394 23.2092L116.034 22.8766ZM149.821 13.6496L149.121 13.6619L149.134 14.3617L149.833 14.3495L149.821 13.6496ZM152.291 13.6065L152.991 13.5943L152.979 12.8944L152.279 12.9066L152.291 13.6065ZM152.365 17.8699L152.377 18.5698L153.077 18.5576L153.065 17.8577L152.365 17.8699ZM149.896 17.913L149.883 17.2131L149.184 17.2253L149.196 17.9252L149.896 17.913ZM150.086 28.8313L150.098 29.5312L150.798 29.519L150.786 28.8191L150.086 28.8313ZM145.147 28.9175L144.447 28.9298L144.459 29.6296L145.159 29.6174L145.147 28.9175ZM144.724 4.66323L144.711 3.96334L144.012 3.97555L144.024 4.67545L144.724 4.66323ZM149.663 4.57701L150.363 4.5648L150.351 3.8649L149.651 3.87712L149.663 4.57701ZM134.789 9.07528L134.815 9.77482L134.815 9.77481L134.789 9.07528ZM149.833 14.3495L152.303 14.3064L152.279 12.9066L149.809 12.9497L149.833 14.3495ZM151.591 13.6187L151.665 17.8821L153.065 17.8577L152.991 13.5943L151.591 13.6187ZM152.353 17.17L149.883 17.2131L149.908 18.6129L152.377 18.5698L152.353 17.17ZM149.196 17.9252L149.386 28.8435L150.786 28.8191L150.596 17.9008L149.196 17.9252ZM150.074 28.1314L145.135 28.2176L145.159 29.6174L150.098 29.5312L150.074 28.1314ZM145.847 28.9053L145.424 4.65101L144.024 4.67545L144.447 28.9298L145.847 28.9053ZM144.736 5.36312L149.675 5.27691L149.651 3.87712L144.711 3.96334L144.736 5.36312ZM148.963 4.58923L149.121 13.6619L150.521 13.6374L150.363 4.5648L148.963 4.58923ZM134.732 5.79778C136.706 5.76333 138.333 6.30676 139.467 7.30675C140.593 8.29889 141.305 9.80387 141.34 11.8474L142.74 11.8229C142.699 9.44711 141.856 7.5467 140.393 6.25666C138.939 4.97447 136.945 4.35894 134.707 4.39799L134.732 5.79778ZM141.34 11.8474L141.511 21.6219L142.911 21.5974L142.74 11.8229L141.34 11.8474ZM141.511 21.6219C141.547 23.6654 140.887 25.1947 139.8 26.2257C138.705 27.2645 137.104 27.8638 135.144 27.898L135.168 29.2977C137.394 29.2589 139.359 28.5737 140.764 27.2416C142.177 25.9015 142.952 23.9732 142.911 21.5974L141.511 21.6219ZM135.144 27.898C133.156 27.9327 131.522 27.3888 130.385 26.3888C129.257 25.3969 128.545 23.8923 128.509 21.8488L127.109 21.8733C127.151 24.2492 127.993 26.15 129.46 27.4401C130.918 28.7222 132.919 29.337 135.168 29.2977L135.144 27.898ZM128.509 21.8488L128.338 12.0743L126.939 12.0988L127.109 21.8733L128.509 21.8488ZM128.338 12.0743C128.303 10.0429 128.956 8.51362 130.044 7.47973C131.139 6.43826 132.746 5.83245 134.732 5.79778L134.707 4.39799C132.456 4.43729 130.484 5.12914 129.079 6.46517C127.666 7.80878 126.897 9.7368 126.939 12.0988L128.338 12.0743ZM138.161 22.1224L137.975 11.438L136.575 11.4625L136.762 22.1469L138.161 22.1224ZM137.975 11.438C137.958 10.4763 137.608 9.67585 136.995 9.1278C136.39 8.58609 135.589 8.34546 134.763 8.37575L134.815 9.77481C135.341 9.75552 135.769 9.90949 136.062 10.1712C136.347 10.4266 136.564 10.8385 136.575 11.4625L137.975 11.438ZM134.764 8.37575C133.941 8.40562 133.158 8.67728 132.577 9.23403C131.987 9.79969 131.671 10.5987 131.688 11.5478L133.088 11.5234C133.077 10.9127 133.273 10.5066 133.546 10.2445C133.829 9.97359 134.259 9.79499 134.815 9.77482L134.764 8.37575ZM131.688 11.5478L131.874 22.2322L133.274 22.2077L133.088 11.5234L131.688 11.5478ZM131.874 22.2322C131.891 23.2101 132.229 24.0148 132.845 24.5655C133.452 25.108 134.252 25.3351 135.073 25.3208L135.048 23.921C134.492 23.9307 134.063 23.7763 133.778 23.5218C133.502 23.2753 133.286 22.8675 133.274 22.2077L131.874 22.2322ZM135.073 25.3208C135.883 25.3067 136.673 25.0504 137.261 24.4901C137.859 23.9208 138.178 23.1055 138.161 22.1224L136.762 22.1469C136.773 22.8015 136.568 23.2176 136.296 23.4761C136.015 23.7436 135.589 23.9116 135.048 23.921L135.073 25.3208ZM175.517 13.2011L174.817 13.2133L174.83 13.9132L175.53 13.901L175.517 13.2011ZM177.987 13.158L178.687 13.1458L178.675 12.4459L177.975 12.4581L177.987 13.158ZM178.061 17.4214L178.074 18.1212L178.773 18.109L178.761 17.4091L178.061 17.4214ZM175.592 17.4645L175.58 16.7646L174.88 16.7768L174.892 17.4767L175.592 17.4645ZM175.782 28.3828L175.795 29.0827L176.494 29.0705L176.482 28.3706L175.782 28.3828ZM170.843 28.469L170.143 28.4812L170.155 29.1811L170.855 29.1689L170.843 28.469ZM170.42 4.2147L170.407 3.51481L169.708 3.52703L169.72 4.22692L170.42 4.2147ZM175.359 4.12849L176.059 4.11627L176.047 3.41638L175.347 3.42859L175.359 4.12849ZM167.462 18.0224L167.474 18.7223L168.174 18.7101L168.162 18.0102L167.462 18.0224ZM158.39 18.1808L158.377 17.4809L157.678 17.4931L157.69 18.193L158.39 18.1808ZM158.484 23.588L157.784 23.6002L157.796 24.3001L158.496 24.2879L158.484 23.588ZM169.272 23.3996L169.972 23.3874L169.96 22.6875L169.26 22.6998L169.272 23.3996ZM169.342 27.403L169.354 28.1029L170.054 28.0907L170.042 27.3908L169.342 27.403ZM153.641 27.6771L152.941 27.6893L152.953 28.3892L153.653 28.377L153.641 27.6771ZM153.407 14.2892L153.395 13.5893L152.695 13.6015L152.707 14.3014L153.407 14.2892ZM162.48 14.1308L162.492 14.8307L163.192 14.8185L163.179 14.1186L162.48 14.1308ZM162.394 9.24353L163.094 9.23132L163.082 8.53142L162.382 8.54364L162.394 9.24353ZM153.53 9.39827L152.83 9.41048L152.842 10.1104L153.542 10.0982L153.53 9.39827ZM153.458 5.31689L153.446 4.61699L152.746 4.62921L152.758 5.3291L153.458 5.31689ZM167.236 5.07639L167.936 5.06418L167.924 4.36428L167.224 4.3765L167.236 5.07639ZM175.53 13.901L177.999 13.8579L177.975 12.4581L175.505 12.5012L175.53 13.901ZM177.287 13.1702L177.361 17.4336L178.761 17.4091L178.687 13.1458L177.287 13.1702ZM178.049 16.7215L175.58 16.7646L175.604 18.1644L178.074 18.1212L178.049 16.7215ZM174.892 17.4767L175.082 28.395L176.482 28.3706L176.292 17.4522L174.892 17.4767ZM175.77 27.6829L170.831 27.7691L170.855 29.1689L175.795 29.0827L175.77 27.6829ZM171.543 28.4568L171.12 4.20249L169.72 4.22692L170.143 28.4812L171.543 28.4568ZM170.432 4.9146L175.371 4.82838L175.347 3.42859L170.407 3.51481L170.432 4.9146ZM174.659 4.1407L174.817 13.2133L176.217 13.1889L176.059 4.11627L174.659 4.1407ZM167.45 17.3225L158.377 17.4809L158.402 18.8807L167.474 18.7223L167.45 17.3225ZM157.69 18.193L157.784 23.6002L159.184 23.5757L159.09 18.1686L157.69 18.193ZM158.496 24.2879L169.285 24.0995L169.26 22.6998L158.472 22.8881L158.496 24.2879ZM168.572 23.4119L168.642 27.4153L170.042 27.3908L169.972 23.3874L168.572 23.4119ZM169.33 26.7031L153.628 26.9772L153.653 28.377L169.354 28.1029L169.33 26.7031ZM154.341 27.6649L154.107 14.2769L152.707 14.3014L152.941 27.6893L154.341 27.6649ZM153.419 14.989L162.492 14.8307L162.467 13.4309L153.395 13.5893L153.419 14.989ZM163.179 14.1186L163.094 9.23132L161.694 9.25575L161.78 14.143L163.179 14.1186ZM162.382 8.54364L153.517 8.69837L153.542 10.0982L162.406 9.94343L162.382 8.54364ZM154.229 9.38605L154.158 5.30467L152.758 5.3291L152.83 9.41048L154.229 9.38605ZM153.471 6.01678L167.248 5.77629L167.224 4.3765L153.446 4.61699L153.471 6.01678ZM166.536 5.08861L166.762 18.0346L168.162 18.0102L167.936 5.06418L166.536 5.08861ZM184.51 21.1834L184.522 21.8833L185.222 21.8711L185.21 21.1712L184.51 21.1834ZM179.467 21.2714L178.767 21.2836L178.779 21.9835L179.479 21.9713L179.467 21.2714ZM179.182 4.9459L179.17 4.246L178.47 4.25822L178.482 4.95811L179.182 4.9459ZM184.225 4.85787L184.925 4.84565L184.913 4.14576L184.213 4.15797L184.225 4.85787ZM184.624 27.7084L184.636 28.4083L185.336 28.3961L185.324 27.6962L184.624 27.7084ZM179.581 27.7964L178.881 27.8086L178.893 28.5085L179.593 28.4963L179.581 27.7964ZM179.494 22.8052L179.481 22.1053L178.781 22.1175L178.794 22.8174L179.494 22.8052ZM184.537 22.7171L185.237 22.7049L185.224 22.005L184.525 22.0173L184.537 22.7171ZM184.498 20.4835L179.455 20.5715L179.479 21.9713L184.522 21.8833L184.498 20.4835ZM180.167 21.2592L179.882 4.93368L178.482 4.95811L178.767 21.2836L180.167 21.2592ZM179.194 5.64579L184.237 5.55776L184.213 4.15797L179.17 4.246L179.194 5.64579ZM183.525 4.87008L183.81 21.1956L185.21 21.1712L184.925 4.84565L183.525 4.87008ZM184.612 27.0085L179.568 27.0965L179.593 28.4963L184.636 28.4083L184.612 27.0085ZM180.281 27.7842L180.193 22.793L178.794 22.8174L178.881 27.8086L180.281 27.7842ZM179.506 23.5051L184.549 23.417L184.525 22.0173L179.481 22.1053L179.506 23.5051ZM183.837 22.7294L183.924 27.7206L185.324 27.6962L185.237 22.7049L183.837 22.7294ZM212.162 3.48608L212.15 2.78619L211.45 2.7984L211.463 3.4983L212.162 3.48608ZM217.102 3.39986L217.802 3.38765L217.789 2.68775L217.09 2.69997L217.102 3.39986ZM217.339 16.9958L217.351 17.6957L218.051 17.6835L218.039 16.9836L217.339 16.9958ZM212.4 17.082L211.7 17.0942L211.712 17.7941L212.412 17.7819L212.4 17.082ZM204.42 3.88126L204.408 3.18137L203.708 3.19358L203.72 3.89348L204.42 3.88126ZM208.944 3.80231L209.643 3.79009L209.631 3.0902L208.931 3.10241L208.944 3.80231ZM209.166 16.5404L209.178 17.2403L209.878 17.228L209.866 16.5282L209.166 16.5404ZM194.478 16.7967L193.778 16.809L193.79 17.5089L194.49 17.4966L194.478 16.7967ZM194.256 4.05868L194.244 3.35879L193.544 3.37101L193.556 4.0709L194.256 4.05868ZM198.831 3.97882L199.531 3.9666L199.519 3.26671L198.819 3.27893L198.831 3.97882ZM198.876 6.55243L198.176 6.56465L198.188 7.26454L198.888 7.25232L198.876 6.55243ZM204.465 6.45487L204.477 7.15476L205.177 7.14255L205.165 6.44265L204.465 6.45487ZM198.936 10.0099L198.924 9.31001L198.224 9.32223L198.236 10.0221L198.936 10.0099ZM198.99 13.0774L198.29 13.0897L198.302 13.7895L199.002 13.7773L198.99 13.0774ZM204.579 12.9799L204.591 13.6798L205.291 13.6676L205.279 12.9677L204.579 12.9799ZM204.525 9.91234L205.225 9.90013L205.213 9.20023L204.513 9.21245L204.525 9.91234ZM212.175 4.18597L217.114 4.09976L217.09 2.69997L212.15 2.78619L212.175 4.18597ZM216.402 3.41208L216.639 17.008L218.039 16.9836L217.802 3.38765L216.402 3.41208ZM217.327 16.2959L212.388 16.3821L212.412 17.7819L217.351 17.6957L217.327 16.2959ZM213.1 17.0698L212.862 3.47386L211.463 3.4983L211.7 17.0942L213.1 17.0698ZM204.432 4.58115L208.956 4.5022L208.931 3.10241L204.408 3.18137L204.432 4.58115ZM208.244 3.81452L208.466 16.5526L209.866 16.5282L209.643 3.79009L208.244 3.81452ZM209.154 15.8405L194.466 16.0969L194.49 17.4966L209.178 17.2403L209.154 15.8405ZM195.178 16.7845L194.956 4.04647L193.556 4.0709L193.778 16.809L195.178 16.7845ZM194.268 4.75858L198.843 4.67871L198.819 3.27893L194.244 3.35879L194.268 4.75858ZM198.131 3.99104L198.176 6.56465L199.576 6.54021L199.531 3.9666L198.131 3.99104ZM198.888 7.25232L204.477 7.15476L204.453 5.75498L198.864 5.85254L198.888 7.25232ZM205.165 6.44265L205.12 3.86904L203.72 3.89348L203.765 6.46709L205.165 6.44265ZM198.236 10.0221L198.29 13.0897L199.69 13.0652L199.636 9.99769L198.236 10.0221ZM199.002 13.7773L204.591 13.6798L204.567 12.28L198.978 12.3775L199.002 13.7773ZM205.279 12.9677L205.225 9.90013L203.826 9.92456L203.879 12.9921L205.279 12.9677ZM204.513 9.21245L198.924 9.31001L198.949 10.7098L204.538 10.6122L204.513 9.21245ZM200.858 18.7897L212.14 18.5928L212.116 17.193L200.833 17.3899L200.858 18.7897ZM212.14 18.5928C213.818 18.5635 215.015 19.0118 215.791 19.7195C216.564 20.4238 217.003 21.4593 217.026 22.7741L218.426 22.7497C218.397 21.127 217.844 19.6965 216.734 18.6848C215.628 17.6766 214.051 17.1592 212.116 17.193L212.14 18.5928ZM217.026 22.7741C217.049 24.089 216.646 25.1392 215.898 25.87C215.147 26.6044 213.967 27.0942 212.289 27.1235L212.313 28.5233C214.249 28.4895 215.807 27.9173 216.877 26.8712C217.951 25.8214 218.454 24.3724 218.426 22.7497L217.026 22.7741ZM212.289 27.1235L201.007 27.3204L201.031 28.7202L212.313 28.5233L212.289 27.1235ZM201.007 27.3204C199.305 27.3501 198.11 26.8902 197.34 26.1779C196.572 25.4676 196.144 24.4306 196.121 23.139L194.721 23.1635C194.749 24.7575 195.287 26.187 196.389 27.2058C197.489 28.2227 199.067 28.7545 201.031 28.7202L201.007 27.3204ZM196.121 23.139C196.098 21.8475 196.49 20.7962 197.233 20.0595C197.978 19.3208 199.156 18.8194 200.858 18.7897L200.833 17.3899C198.87 17.4242 197.311 18.0108 196.247 19.0654C195.181 20.1221 194.693 21.5695 194.721 23.1635L196.121 23.139ZM202.273 25.37L210.956 25.2185L210.931 23.8187L202.248 23.9702L202.273 25.37ZM210.956 25.2185C211.677 25.2059 212.316 24.9972 212.773 24.544C213.234 24.0873 213.42 23.4731 213.408 22.8373L212.009 22.8617C212.015 23.2137 211.915 23.4236 211.788 23.5493C211.658 23.6784 211.406 23.8104 210.931 23.8187L210.956 25.2185ZM213.408 22.8373C213.397 22.2022 213.192 21.5919 212.72 21.1462C212.249 20.7013 211.602 20.5045 210.874 20.5172L210.898 21.917C211.366 21.9088 211.621 22.0343 211.758 22.1639C211.895 22.2926 212.002 22.5089 212.009 22.8617L213.408 22.8373ZM210.874 20.5172L202.191 20.6687L202.215 22.0685L210.898 21.917L210.874 20.5172ZM202.191 20.6687C201.472 20.6813 200.836 20.9024 200.38 21.3589C199.923 21.817 199.727 22.4328 199.738 23.0759L201.138 23.0515C201.132 22.7067 201.234 22.4852 201.371 22.3478C201.51 22.2089 201.764 22.0764 202.215 22.0685L202.191 20.6687ZM199.738 23.0759C199.75 23.7199 199.968 24.3254 200.445 24.7618C200.919 25.1943 201.561 25.3824 202.273 25.37L202.248 23.9702C201.79 23.9782 201.531 23.8571 201.389 23.7282C201.253 23.6033 201.144 23.3953 201.138 23.0515L199.738 23.0759ZM237.189 7.88598L237.889 7.87376L237.877 7.17387L237.177 7.18608L237.189 7.88598ZM220.344 8.18002L219.644 8.19223L219.656 8.89212L220.356 8.87991L220.344 8.18002ZM220.27 3.96866L220.258 3.26876L219.558 3.28098L219.57 3.98087L220.27 3.96866ZM241.977 3.58976L242.677 3.57755L242.665 2.87765L241.965 2.88987L241.977 3.58976ZM240.956 19.6L240.968 20.2999L241.489 20.2908L241.63 19.7899L240.956 19.6ZM235.939 19.6876L235.269 19.4844L234.99 20.4043L235.951 20.3875L235.939 19.6876ZM232.103 12.9935L232.803 12.9813L232.791 12.2814L232.091 12.2936L232.103 12.9935ZM232.274 22.742L231.574 22.7542L231.586 23.4541L232.286 23.4419L232.274 22.742ZM243.66 22.5433L244.36 22.5311L244.348 21.8312L243.648 21.8434L243.66 22.5433ZM243.73 26.5467L243.742 27.2466L244.442 27.2343L244.43 26.5345L243.73 26.5467ZM219.813 26.9641L219.114 26.9763L219.126 27.6762L219.826 27.664L219.813 26.9641ZM219.744 22.9607L219.731 22.2608L219.031 22.2731L219.044 22.973L219.744 22.9607ZM227.23 22.8301L227.243 23.5299L227.942 23.5177L227.93 22.8178L227.23 22.8301ZM227.06 13.0815L227.048 12.3816L226.348 12.3939L226.36 13.0938L227.06 13.0815ZM237.929 10.1874L237.889 7.87376L236.489 7.89819L236.53 10.2118L237.929 10.1874ZM237.177 7.18608L220.331 7.48012L220.356 8.87991L237.201 8.58587L237.177 7.18608ZM221.044 8.1678L220.97 3.95644L219.57 3.98087L219.644 8.19223L221.044 8.1678ZM220.282 4.66855L241.989 4.28966L241.965 2.88987L220.258 3.26876L220.282 4.66855ZM241.277 3.60198L241.391 10.127L242.791 10.1026L242.677 3.57755L241.277 3.60198ZM241.391 10.127C241.458 13.9664 241.168 16.269 240.282 19.4101L241.63 19.7899C242.557 16.5024 242.86 14.062 242.791 10.1026L241.391 10.127ZM240.944 18.9001L235.927 18.9877L235.951 20.3875L240.968 20.2999L240.944 18.9001ZM236.609 19.8908C237.615 16.5752 237.99 13.6874 237.929 10.1874L236.53 10.2118C236.588 13.5748 236.23 16.3166 235.269 19.4844L236.609 19.8908ZM231.404 13.0057L231.574 22.7542L232.974 22.7298L232.803 12.9813L231.404 13.0057ZM232.286 23.4419L243.672 23.2432L243.648 21.8434L232.261 22.0421L232.286 23.4419ZM242.96 22.5555L243.03 26.5589L244.43 26.5345L244.36 22.5311L242.96 22.5555ZM243.718 25.8468L219.801 26.2642L219.826 27.664L243.742 27.2466L243.718 25.8468ZM220.513 26.9519L220.443 22.9485L219.044 22.973L219.114 26.9763L220.513 26.9519ZM219.756 23.6606L227.243 23.5299L227.218 22.1302L219.731 22.2608L219.756 23.6606ZM227.93 22.8178L227.76 13.0693L226.36 13.0938L226.53 22.8423L227.93 22.8178ZM227.072 13.7814L232.116 13.6934L232.091 12.2936L227.048 12.3816L227.072 13.7814ZM256.834 12.3278L256.134 12.34L256.146 13.0399L256.846 13.0277L256.834 12.3278ZM258.913 12.2915L258.926 12.9914L259.625 12.9792L259.613 12.2793L258.913 12.2915ZM258.745 2.67297L258.733 1.97308L258.033 1.9853L258.046 2.68519L258.745 2.67297ZM263.035 2.5981L263.735 2.58588L263.722 1.88599L263.023 1.89821L263.035 2.5981ZM263.458 26.8524L263.47 27.5523L264.17 27.5401L264.158 26.8402L263.458 26.8524ZM259.169 26.9273L258.469 26.9395L258.481 27.6394L259.181 27.6272L259.169 26.9273ZM258.982 16.2169L259.682 16.2047L259.669 15.5048L258.97 15.517L258.982 16.2169ZM256.382 16.2623L256.37 15.5624L255.817 15.572L255.699 16.1118L256.382 16.2623ZM245.59 26.6442L244.89 26.6564L244.904 27.4851L245.719 27.3322L245.59 26.6442ZM245.512 22.1729L245.304 21.5045L244.803 21.6603L244.812 22.1851L245.512 22.1729ZM252.281 7.75257L252.981 7.74035L252.969 7.04046L252.269 7.05267L252.281 7.75257ZM245.392 7.87281L244.692 7.88503L244.704 8.58492L245.404 8.57271L245.392 7.87281ZM245.32 3.73944L245.308 3.03955L244.608 3.05176L244.62 3.75166L245.32 3.73944ZM256.68 3.54115L257.38 3.52893L257.368 2.82904L256.668 2.84125L256.68 3.54115ZM265.018 26.8252L264.318 26.8374L264.33 27.5373L265.03 27.5251L265.018 26.8252ZM264.594 2.57088L264.582 1.87098L263.882 1.8832L263.895 2.58309L264.594 2.57088ZM268.884 2.496L269.584 2.48379L269.572 1.78389L268.872 1.79611L268.884 2.496ZM269.307 26.7503L269.319 27.4502L270.019 27.438L270.007 26.7381L269.307 26.7503ZM256.846 13.0277L258.926 12.9914L258.901 11.5916L256.821 11.6279L256.846 13.0277ZM259.613 12.2793L259.445 2.66076L258.046 2.68519L258.213 12.3037L259.613 12.2793ZM258.758 3.37287L263.047 3.29799L263.023 1.89821L258.733 1.97308L258.758 3.37287ZM262.335 2.61032L262.758 26.8646L264.158 26.8402L263.735 2.58588L262.335 2.61032ZM263.446 26.1525L259.157 26.2274L259.181 27.6272L263.47 27.5523L263.446 26.1525ZM259.869 26.9151L259.682 16.2047L258.282 16.2291L258.469 26.9395L259.869 26.9151ZM258.97 15.517L256.37 15.5624L256.394 16.9622L258.994 16.9168L258.97 15.517ZM255.699 16.1118C254.508 21.52 250.844 24.9456 245.461 25.9562L245.719 27.3322C251.637 26.2213 255.751 22.3861 257.066 16.4128L255.699 16.1118ZM246.29 26.632L246.212 22.1607L244.812 22.1851L244.89 26.6564L246.29 26.632ZM245.72 22.8413C247.923 22.156 249.799 20.9263 251.104 19.0644C252.408 17.2039 253.104 14.7698 253.051 11.7437L251.651 11.7682C251.7 14.5652 251.057 16.6921 249.958 18.2607C248.859 19.8277 247.264 20.8949 245.304 21.5045L245.72 22.8413ZM253.051 11.7437L252.981 7.74035L251.581 7.76478L251.651 11.7682L253.051 11.7437ZM252.269 7.05267L245.38 7.17292L245.404 8.57271L252.293 8.45246L252.269 7.05267ZM246.092 7.8606L246.02 3.72722L244.62 3.75166L244.692 7.88503L246.092 7.8606ZM245.332 4.43933L256.692 4.24104L256.668 2.84125L245.308 3.03955L245.332 4.43933ZM255.98 3.55336L256.122 11.6641L257.522 11.6397L257.38 3.52893L255.98 3.55336ZM256.122 11.6641L256.134 12.34L257.533 12.3156L257.522 11.6397L256.122 11.6641ZM265.718 26.813L265.294 2.55866L263.895 2.58309L264.318 26.8374L265.718 26.813ZM264.607 3.27077L268.896 3.1959L268.872 1.79611L264.582 1.87098L264.607 3.27077ZM268.184 2.50822L268.607 26.7625L270.007 26.7381L269.584 2.48379L268.184 2.50822ZM269.295 26.0504L265.006 26.1253L265.03 27.5251L269.319 27.4502L269.295 26.0504ZM294.423 15.3903L294.435 16.0901L295.135 16.0779L295.123 15.378L294.423 15.3903ZM289.484 15.4765L288.784 15.4887L288.796 16.1886L289.496 16.1764L289.484 15.4765ZM289.251 2.1405L289.239 1.44061L288.539 1.45282L288.551 2.15272L289.251 2.1405ZM294.19 2.05428L294.89 2.04207L294.878 1.34217L294.178 1.35439L294.19 2.05428ZM294.639 26.3081L294.652 27.008L295.351 26.9958L295.339 26.2959L294.639 26.3081ZM272.751 26.6902L272.051 26.7024L272.063 27.4023L272.763 27.3901L272.751 26.6902ZM272.576 16.6817L272.564 15.9818L271.864 15.9941L271.876 16.6939L272.576 16.6817ZM294.465 16.2997L295.165 16.2874L295.152 15.5876L294.452 15.5998L294.465 16.2997ZM277.495 19.9244L277.483 19.2245L276.783 19.2367L276.795 19.9366L277.495 19.9244ZM277.553 23.2519L276.854 23.2641L276.866 23.964L277.566 23.9518L277.553 23.2519ZM289.72 23.0395L289.732 23.7394L290.432 23.7272L290.419 23.0273L289.72 23.0395ZM289.661 19.712L290.361 19.6998L290.349 18.9999L289.649 19.0121L289.661 19.712ZM294.411 14.6904L289.471 14.7766L289.496 16.1764L294.435 16.0901L294.411 14.6904ZM290.183 15.4643L289.951 2.12828L288.551 2.15272L288.784 15.4887L290.183 15.4643ZM289.263 2.84039L294.202 2.75418L294.178 1.35439L289.239 1.44061L289.263 2.84039ZM293.49 2.0665L293.723 15.4025L295.123 15.378L294.89 2.04207L293.49 2.0665ZM272.09 9.79917L272.064 8.31739L270.664 8.34183L270.69 9.8236L272.09 9.79917ZM272.064 8.31739C272.035 6.65198 272.69 5.41464 273.806 4.56366C274.948 3.69348 276.624 3.19103 278.659 3.15551L278.634 1.75572C276.406 1.79461 274.408 2.34445 272.958 3.45031C271.482 4.57536 270.627 6.23781 270.664 8.34183L272.064 8.31739ZM278.659 3.15551C280.71 3.11971 282.408 3.55791 283.582 4.38443C284.728 5.19178 285.427 6.4042 285.456 8.08363L286.856 8.0592C286.819 5.94322 285.908 4.3103 284.388 3.23989C282.896 2.18863 280.873 1.71665 278.634 1.75572L278.659 3.15551ZM285.456 8.08363L285.482 9.56541L286.882 9.54098L286.856 8.0592L285.456 8.08363ZM285.482 9.56541C285.511 11.245 284.855 12.4814 283.74 13.3282C282.6 14.195 280.924 14.6917 278.887 14.7273L278.911 16.1271C281.138 16.0882 283.136 15.5457 284.587 14.4429C286.065 13.3202 286.918 11.6568 286.882 9.54098L285.482 9.56541ZM278.887 14.7273C276.85 14.7628 275.15 14.325 273.973 13.4977C272.823 12.6894 272.119 11.4765 272.09 9.79917L270.69 9.8236C270.727 11.9416 271.646 13.5739 273.168 14.6432C274.663 15.6936 276.685 16.1659 278.911 16.1271L278.887 14.7273ZM275.473 8.25788L275.499 9.73965L276.899 9.71522L276.873 8.23345L275.473 8.25788ZM275.499 9.73965C275.513 10.5544 275.846 11.2854 276.459 11.7989C277.064 12.3059 277.888 12.5564 278.823 12.5401L278.798 11.1403C278.121 11.1521 277.65 10.9701 277.358 10.7256C277.074 10.4877 276.907 10.1483 276.899 9.71522L275.499 9.73965ZM278.823 12.5401C279.757 12.5238 280.576 12.2448 281.168 11.72C281.769 11.1881 282.087 10.4458 282.072 9.62492L280.672 9.64936C280.68 10.0763 280.523 10.4215 280.24 10.672C279.949 10.9298 279.475 11.1285 278.798 11.1403L278.823 12.5401ZM282.072 9.62492L282.046 8.14315L280.647 8.16758L280.672 9.64936L282.072 9.62492ZM282.046 8.14315C282.032 7.32417 281.69 6.58745 281.072 6.07297C280.46 5.5635 279.628 5.31183 278.686 5.34346L278.733 6.74267C279.402 6.72018 279.878 6.90075 280.176 7.14901C280.468 7.39226 280.639 7.73875 280.647 8.16758L282.046 8.14315ZM278.686 5.34346C277.759 5.3746 276.949 5.65218 276.363 6.17413C275.767 6.70498 275.459 7.44131 275.473 8.25788L276.873 8.23345C276.866 7.80221 277.02 7.4643 277.295 7.21934C277.579 6.96548 278.048 6.76566 278.733 6.74267L278.686 5.34346ZM294.627 25.6082L272.738 25.9903L272.763 27.3901L294.652 27.008L294.627 25.6082ZM273.451 26.678L273.276 16.6695L271.876 16.6939L272.051 26.7024L273.451 26.678ZM272.588 17.3816L294.477 16.9996L294.452 15.5998L272.564 15.9818L272.588 17.3816ZM293.765 16.3119L293.939 26.3204L295.339 26.2959L295.165 16.2874L293.765 16.3119ZM276.795 19.9366L276.854 23.2641L278.253 23.2396L278.195 19.9122L276.795 19.9366ZM277.566 23.9518L289.732 23.7394L289.707 22.3396L277.541 22.552L277.566 23.9518ZM290.419 23.0273L290.361 19.6998L288.962 19.7242L289.02 23.0517L290.419 23.0273ZM289.649 19.0121L277.483 19.2245L277.508 20.6243L289.674 20.4119L289.649 19.0121Z" fill="black" mask="url(#path-3-outside-1_6_276)"/>
</g>
<defs>
<filter id="filter0_d_6_276" x="0" y="0" width="317" height="39" filterUnits="userSpaceOnUse" color-interpolation-filters="sRGB">
<feFlood flood-opacity="0" result="BackgroundImageFix"/>
<feColorMatrix in="SourceAlpha" type="matrix" values="0 0 0 0 0 0 0 0 0 0 0 0 0 0 0 0 0 0 127 0" result="hardAlpha"/>
<feOffset dx="5" dy="5"/>
<feComposite in2="hardAlpha" operator="out"/>
<feColorMatrix type="matrix" values="0 0 0 0 0 0 0 0 0 0 0 0 0 0 0 0 0 0 1 0"/>
<feBlend mode="normal" in2="BackgroundImageFix" result="effect1_dropShadow_6_276"/>
<feBlend mode="normal" in="SourceGraphic" in2="effect1_dropShadow_6_276" result="shape"/>
</filter>
<filter id="filter1_d_6_276" x="17.0662" y="1.94984" width="277.576" height="29.3779" filterUnits="userSpaceOnUse" color-interpolation-filters="sRGB">
<feFlood flood-opacity="0" result="BackgroundImageFix"/>
<feColorMatrix in="SourceAlpha" type="matrix" values="0 0 0 0 0 0 0 0 0 0 0 0 0 0 0 0 0 0 127 0" result="hardAlpha"/>
<feOffset/>
<feComposite in2="hardAlpha" operator="out"/>
<feColorMatrix type="matrix" values="0 0 0 0 0 0 0 0 0 0 0 0 0 0 0 0 0 0 1 0"/>
<feBlend mode="normal" in2="BackgroundImageFix" result="effect1_dropShadow_6_276"/>
<feBlend mode="normal" in="SourceGraphic" in2="effect1_dropShadow_6_276" result="shape"/>
</filter>
</defs>
</svg>
