<svg width="337" height="171" viewBox="0 0 337 171" fill="none" xmlns="http://www.w3.org/2000/svg">
<g style="mix-blend-mode:multiply">
<path d="M40.79 134.74C38.26 118.7 35.73 102.66 33.2 86.62C44.01 84.92 54.84 83.41 65.69 82.1C80.49 80.35 87.1 84 87.86 92.12C88.33 96.97 86.25 100.72 81.65 103.47C87.9799 104.96 92.0299 109.14 92.5199 114.45C93.3699 123.73 88.42 128.47 71.51 130.46C68.3 130.85 65.0999 131.25 61.8899 131.67C60.6899 127.05 59.4799 122.43 58.2599 117.82C61.3799 117.4 64.4999 117 67.6299 116.62C71.6399 116.13 73.1799 115.02 72.9499 113.06C72.7199 111.1 70.9499 110.37 66.9199 110.86C63.5799 111.27 60.24 111.7 56.9 112.15C57.79 118.76 58.68 125.37 59.57 131.98C53.2999 132.83 47.0299 133.74 40.7799 134.73L40.79 134.74ZM65.3899 100.84C68.63 100.44 70.02 99.35 69.83 97.68C69.63 96.01 68.0099 95.26 64.75 95.66C61.45 96.07 58.1499 96.49 54.8499 96.94C55.0799 98.66 55.3099 100.39 55.5499 102.11C58.83 101.67 62.1099 101.24 65.3899 100.84Z" fill="black" stroke="black" stroke-width="1.24" stroke-miterlimit="10"/>
<path d="M121.14 125.96C114.54 126.37 107.95 126.85 101.36 127.41C99.99 111.23 98.62 95.05 97.24 78.87C104.21 78.28 111.18 77.77 118.15 77.34C119.14 93.55 120.14 109.75 121.14 125.96Z" fill="black" stroke="black" stroke-width="1.24" stroke-miterlimit="10"/>
<path d="M126.78 76.85C133.96 76.48 141.15 76.19 148.34 75.99C153.08 83.69 157.69 91.43 162.19 99.2C162.09 91.37 161.99 83.54 161.89 75.72C168.26 75.64 174.63 75.63 180.99 75.68C180.85 91.92 180.71 108.15 180.57 124.39C173.77 124.33 166.97 124.36 160.17 124.46C155.77 116.7 151.26 108.97 146.63 101.28C146.87 109.11 147.11 116.93 147.35 124.76C141.33 124.94 135.31 125.19 129.29 125.5C128.45 109.28 127.61 93.07 126.77 76.85H126.78Z" fill="black" stroke="black" stroke-width="1.24" stroke-miterlimit="10"/>
<path d="M242.37 100.4C241.67 109.26 240.97 118.13 240.27 126.99C231.97 126.33 223.67 125.8 215.36 125.39C196.26 124.49 188.35 116.11 188.58 99.55C188.81 83.07 197.47 74.63 217.82 75.58C227.25 76.05 234.24 77.27 241.57 79.11C240.76 84.32 239.96 89.53 239.16 94.75C232.75 93.63 226.26 92.58 219.78 92.24C213.72 91.92 209.8 94.39 209.57 100.18C209.34 105.98 212.97 108.73 218.9 109.04C220.52 109.13 222.15 109.22 223.77 109.31C223.97 105.93 224.16 102.56 224.36 99.18C230.36 99.53 236.37 99.94 242.36 100.42L242.37 100.4Z" fill="black" stroke="black" stroke-width="1.24" stroke-miterlimit="10"/>
<path d="M249.87 104.46C256.86 105.07 263.84 105.77 270.81 106.56C270.81 110.36 273.58 113.93 278.83 114.57C284.43 115.26 288.19 111.91 288.77 107.6C289.35 103.29 286.6 99.17 280.81 98.46C275.38 97.8 271.52 100.7 270.88 105.99C263.97 104.63 257.03 103.35 250.08 102.16C251.95 87.62 264.7 78.97 282.93 81.19C301.66 83.5 312.05 95.54 309.59 110.69C307.12 125.88 294.24 134.01 276.72 131.85C259.6 129.76 249.25 119.23 249.87 104.48V104.46Z" fill="black" stroke="black" stroke-width="1.24" stroke-miterlimit="10"/>
</g>
<path d="M35.84 131.85C33.31 115.81 30.78 99.77 28.25 83.73C39.06 82.03 49.89 80.52 60.74 79.21C75.54 77.46 82.15 81.11 82.91 89.23C83.38 94.08 81.3 97.83 76.7 100.58C83.03 102.07 87.08 106.25 87.57 111.56C88.42 120.84 83.47 125.58 66.56 127.57C63.35 127.96 60.15 128.36 56.94 128.78C55.74 124.16 54.53 119.54 53.31 114.93C56.43 114.51 59.55 114.11 62.68 113.73C66.69 113.24 68.23 112.13 68 110.17C67.77 108.21 66 107.48 61.97 107.97C58.63 108.38 55.29 108.81 51.95 109.26C52.84 115.87 53.73 122.48 54.62 129.09C48.35 129.94 42.08 130.85 35.83 131.84L35.84 131.85ZM60.44 97.95C63.68 97.55 65.07 96.46 64.88 94.79C64.68 93.12 63.06 92.37 59.8 92.77C56.5 93.18 53.2 93.6 49.9 94.05C50.13 95.77 50.36 97.5 50.6 99.22C53.88 98.78 57.16 98.35 60.44 97.95Z" fill="#FF9900" stroke="black" stroke-width="1.24" stroke-miterlimit="10"/>
<path d="M116.19 123.07C109.59 123.48 103 123.96 96.41 124.52C95.04 108.34 93.67 92.16 92.29 75.98C99.26 75.39 106.23 74.88 113.2 74.45C114.19 90.66 115.19 106.86 116.19 123.07Z" fill="#FF9900" stroke="black" stroke-width="1.24" stroke-miterlimit="10"/>
<path d="M121.83 73.96C129.01 73.59 136.2 73.3 143.39 73.1C148.13 80.8 152.74 88.54 157.24 96.31C157.14 88.48 157.04 80.65 156.94 72.83C163.31 72.75 169.68 72.74 176.04 72.79C175.9 89.03 175.76 105.26 175.62 121.5C168.82 121.44 162.02 121.47 155.22 121.57C150.82 113.81 146.31 106.08 141.68 98.39C141.92 106.22 142.16 114.04 142.4 121.87C136.38 122.05 130.36 122.3 124.34 122.61C123.5 106.39 122.66 90.18 121.82 73.96H121.83Z" fill="#FF9900" stroke="black" stroke-width="1.24" stroke-miterlimit="10"/>
<path d="M237.42 97.51C236.72 106.37 236.02 115.24 235.32 124.1C227.02 123.44 218.72 122.91 210.41 122.5C191.31 121.6 183.4 113.22 183.63 96.66C183.86 80.18 192.52 71.74 212.87 72.69C222.3 73.16 229.29 74.38 236.62 76.22C235.81 81.43 235.01 86.64 234.21 91.86C227.8 90.74 221.31 89.69 214.83 89.35C208.77 89.03 204.85 91.5 204.62 97.29C204.39 103.09 208.02 105.84 213.95 106.15C215.57 106.24 217.2 106.33 218.82 106.42C219.02 103.04 219.21 99.67 219.41 96.29C225.41 96.64 231.42 97.05 237.41 97.53L237.42 97.51Z" fill="#FF9900" stroke="black" stroke-width="1.24" stroke-miterlimit="10"/>
<path d="M244.92 101.57C251.91 102.18 258.89 102.88 265.86 103.67C265.86 107.47 268.63 111.04 273.88 111.68C279.48 112.37 283.24 109.02 283.82 104.71C284.4 100.4 281.65 96.28 275.86 95.57C270.43 94.91 266.57 97.81 265.93 103.1C259.02 101.74 252.08 100.46 245.13 99.27C247 84.73 259.75 76.08 277.98 78.3C296.71 80.61 307.1 92.65 304.64 107.8C302.17 122.99 289.29 131.12 271.77 128.96C254.65 126.87 244.3 116.34 244.92 101.59V101.57Z" fill="#FF9900" stroke="black" stroke-width="1.24" stroke-miterlimit="10"/>
<g filter="url(#filter0_d_5_105)">
<path d="M87.64 60.08C86.23 59.43 85.11 58.47 84.28 57.19C83.45 55.92 83.03 54.38 83.03 52.57C83.03 51.31 83.25 49.94 83.69 48.47C84.66 45.32 86.12 43.04 88.07 41.64C90.03 40.24 92.12 39.54 94.35 39.54C95.55 39.54 96.61 39.72 97.54 40.08C98.47 40.44 99.32 40.95 100.09 41.63L100.94 40.97C101.51 40.53 101.99 40.22 102.38 40.06C102.77 39.89 103.21 39.81 103.69 39.81C104.22 39.81 104.64 39.93 104.95 40.16C105.27 40.39 105.42 40.73 105.42 41.17C105.42 41.4 105.38 41.63 105.29 41.86L103.52 46.78C103.33 47.35 103.1 47.75 102.84 47.98C102.58 48.21 102.18 48.33 101.66 48.33C101.14 48.33 100.67 48.14 100.32 47.75C99.97 47.36 99.58 46.69 99.14 45.75C98.64 44.76 98.23 44.11 97.91 43.79C97.59 43.47 97.13 43.32 96.52 43.32C95.66 43.32 94.83 43.85 94.03 44.91C93.23 45.97 92.51 47.56 91.85 49.69C91.3 51.48 91.03 52.97 91.03 54.17C91.03 55.22 91.23 56 91.63 56.52C92.03 57.04 92.57 57.29 93.24 57.29C94.23 57.29 95.04 57.07 95.68 56.63C96.32 56.19 96.98 55.59 97.65 54.83C98.07 54.37 98.41 54.03 98.67 53.81C98.93 53.59 99.21 53.48 99.51 53.48C99.89 53.48 100.29 53.67 100.71 54.05C101.13 54.43 101.33 54.81 101.31 55.19C101.33 55.65 100.96 56.37 100.19 57.33C99.42 58.3 98.36 59.16 97 59.93C95.64 60.7 94.1 61.08 92.38 61.08C90.66 61.08 89.03 60.75 87.62 60.1L87.64 60.08Z" fill="#FF9900" stroke="black" stroke-width="0.7" stroke-miterlimit="10"/>
<path d="M116.02 38.25C116.6 38.71 116.89 39.34 116.89 40.14C116.89 40.6 116.82 41.05 116.67 41.5L111.72 57.59C111.66 57.84 111.63 58.06 111.63 58.25C111.63 58.52 111.68 58.74 111.79 58.9C111.9 59.06 112.04 59.21 112.23 59.36C112.38 59.51 112.48 59.63 112.55 59.72C112.62 59.81 112.62 59.94 112.58 60.08C112.47 60.35 112.26 60.55 111.95 60.68C111.63 60.81 111.15 60.87 110.5 60.87H103.31C102.76 60.87 102.36 60.78 102.11 60.6C101.86 60.42 101.77 60.19 101.86 59.89C101.94 59.64 102.16 59.42 102.52 59.23C102.84 59.06 103.1 58.86 103.31 58.63C103.52 58.4 103.7 58.03 103.85 57.53L108.64 41.79C108.7 41.6 108.73 41.44 108.73 41.32C108.73 41.09 108.67 40.9 108.56 40.75C108.44 40.6 108.29 40.46 108.1 40.31C107.89 40.14 107.74 39.99 107.64 39.87C107.55 39.74 107.53 39.58 107.59 39.37C107.72 38.89 108.38 38.47 109.58 38.11C110.78 37.75 112.03 37.57 113.33 37.57C114.55 37.57 115.45 37.8 116.03 38.26L116.02 38.25Z" fill="#FF9900" stroke="black" stroke-width="0.7" stroke-miterlimit="10"/>
<path d="M133.33 45.91C134.69 47.07 135.36 48.58 135.36 50.45C135.36 51.08 135.28 51.79 135.11 52.56C134.71 54.28 133.96 55.79 132.87 57.09C131.78 58.38 130.44 59.38 128.85 60.09C127.26 60.79 125.54 61.15 123.69 61.15C120.77 61.15 118.61 60.57 117.21 59.4C115.81 58.23 115.11 56.68 115.11 54.75C115.11 54.1 115.19 53.37 115.36 52.57C115.76 50.93 116.52 49.47 117.65 48.2C118.77 46.93 120.15 45.94 121.78 45.23C123.41 44.53 125.15 44.17 127 44.17C129.86 44.17 131.97 44.75 133.32 45.9L133.33 45.91ZM125.51 48.17C125.02 48.96 124.43 50.45 123.76 52.63C123.09 54.82 122.75 56.35 122.75 57.24C122.75 57.7 122.82 58.01 122.97 58.17C123.12 58.33 123.32 58.41 123.57 58.41C124.01 58.45 124.47 58.07 124.94 57.27C125.41 56.47 126.01 54.92 126.72 52.6C127.37 50.56 127.7 49.08 127.7 48.15C127.7 47.71 127.63 47.4 127.49 47.24C127.35 47.07 127.16 46.99 126.91 46.99C126.47 46.99 126 47.38 125.51 48.17Z" fill="#FF9900" stroke="black" stroke-width="0.7" stroke-miterlimit="10"/>
<path d="M154.23 56.51C154.19 56.68 154.17 56.8 154.17 56.89C154.17 57.04 154.21 57.15 154.28 57.24C154.35 57.32 154.45 57.37 154.58 57.37C154.83 57.37 155.05 57.26 155.23 57.04C155.41 56.82 155.53 56.71 155.59 56.71C155.69 56.71 155.78 56.78 155.86 56.92C155.93 57.06 155.97 57.22 155.97 57.41C155.99 58 155.78 58.58 155.34 59.16C154.9 59.74 154.28 60.22 153.48 60.6C152.68 60.98 151.79 61.17 150.8 61.17C149.56 61.17 148.57 60.92 147.83 60.41C147.09 59.91 146.62 59.24 146.41 58.42C145.65 59.26 144.82 59.9 143.9 60.33C142.99 60.76 142.05 60.98 141.11 60.98C139.64 60.98 138.4 60.62 137.4 59.89C136.4 59.16 135.9 58.15 135.9 56.85C135.9 56.26 136.01 55.65 136.22 55.02L138.24 48.43C138.3 48.24 138.33 48.08 138.33 47.96C138.33 47.73 138.28 47.55 138.17 47.41C138.06 47.27 137.91 47.13 137.7 46.98C137.49 46.81 137.34 46.66 137.26 46.54C137.18 46.41 137.17 46.25 137.23 46.04C137.36 45.56 138.02 45.13 139.22 44.76C140.42 44.39 141.67 44.21 142.97 44.21C144.19 44.21 145.08 44.44 145.65 44.9C146.22 45.36 146.5 45.99 146.5 46.79C146.5 47.27 146.43 47.74 146.28 48.18L144.29 54.74C144.21 54.97 144.16 55.19 144.16 55.4C144.16 55.69 144.24 55.92 144.41 56.06C144.58 56.21 144.8 56.28 145.07 56.28C145.47 56.28 145.8 56.16 146.05 55.93C146.3 55.7 146.55 55.31 146.81 54.76L148.73 48.42C148.79 48.23 148.83 48.07 148.83 47.95C148.83 47.72 148.78 47.54 148.67 47.4C148.56 47.26 148.42 47.12 148.23 46.97C148.02 46.8 147.87 46.65 147.79 46.53C147.71 46.4 147.7 46.24 147.76 46.03C147.86 45.55 148.52 45.12 149.72 44.75C150.92 44.38 152.17 44.2 153.47 44.2C154.69 44.2 155.59 44.43 156.17 44.89C156.75 45.35 157.04 45.97 157.04 46.75C157.04 47.15 156.96 47.62 156.79 48.17L154.24 56.53L154.23 56.51Z" fill="#FF9900" stroke="black" stroke-width="0.7" stroke-miterlimit="10"/>
<path d="M174.7 56.67C174.7 56.82 174.74 56.93 174.83 57.02C174.91 57.1 175.02 57.15 175.15 57.15C175.4 57.15 175.62 57.04 175.8 56.82C175.98 56.6 176.1 56.49 176.16 56.49C176.27 56.49 176.35 56.56 176.41 56.71C176.47 56.86 176.51 57.03 176.51 57.21C176.53 57.78 176.31 58.36 175.86 58.94C175.41 59.53 174.8 60.01 174.05 60.39C173.29 60.77 172.47 60.96 171.59 60.96C170.54 60.96 169.62 60.76 168.85 60.36C168.07 59.96 167.54 59.43 167.24 58.78C166.67 59.52 166.02 60.06 165.28 60.42C164.54 60.78 163.77 60.96 162.95 60.96C161.98 60.96 161.08 60.72 160.25 60.23C159.42 59.75 158.76 59.06 158.26 58.16C157.77 57.27 157.52 56.25 157.52 55.12C157.52 53.21 157.88 51.4 158.61 49.71C159.34 48.02 160.35 46.65 161.65 45.61C162.95 44.57 164.44 44.05 166.1 44.05C167 44.05 167.78 44.16 168.42 44.37C169.06 44.58 169.64 44.9 170.17 45.32L171.24 41.79C171.3 41.6 171.33 41.44 171.33 41.32C171.33 41.09 171.27 40.9 171.16 40.75C171.04 40.6 170.89 40.46 170.7 40.31C170.49 40.14 170.34 39.99 170.24 39.87C170.15 39.74 170.13 39.58 170.19 39.37C170.32 38.89 170.98 38.47 172.18 38.11C173.38 37.75 174.63 37.57 175.93 37.57C177.15 37.57 178.05 37.8 178.63 38.26C179.21 38.72 179.5 39.35 179.5 40.15C179.5 40.61 179.43 41.06 179.28 41.51L174.77 56.34C174.73 56.51 174.71 56.62 174.71 56.69L174.7 56.67ZM168.39 47.02C167.78 47.02 167.18 47.47 166.59 48.38C166 49.28 165.53 50.38 165.17 51.66C164.81 52.94 164.64 54.1 164.67 55.13C164.67 56.29 165.05 56.86 165.81 56.86C166.08 56.86 166.31 56.75 166.5 56.53C166.69 56.31 166.87 55.95 167.04 55.44L169.5 47.46C169.16 47.17 168.8 47.02 168.4 47.02H168.39Z" fill="#FF9900" stroke="black" stroke-width="0.7" stroke-miterlimit="10"/>
<path d="M190.32 60.08C188.91 59.43 187.79 58.47 186.96 57.19C186.13 55.92 185.71 54.38 185.71 52.57C185.71 51.31 185.93 49.94 186.37 48.47C187.34 45.32 188.8 43.04 190.75 41.64C192.71 40.24 194.8 39.54 197.03 39.54C198.23 39.54 199.29 39.72 200.22 40.08C201.15 40.44 202 40.95 202.78 41.63L203.63 40.97C204.2 40.53 204.68 40.22 205.07 40.06C205.46 39.89 205.9 39.81 206.38 39.81C206.91 39.81 207.33 39.93 207.64 40.16C207.96 40.39 208.11 40.73 208.11 41.17C208.11 41.4 208.07 41.63 207.98 41.86L206.21 46.78C206.02 47.35 205.79 47.75 205.53 47.98C205.27 48.21 204.87 48.33 204.35 48.33C203.83 48.33 203.36 48.14 203.01 47.75C202.66 47.36 202.27 46.69 201.83 45.75C201.33 44.76 200.92 44.11 200.6 43.79C200.28 43.47 199.82 43.32 199.21 43.32C198.35 43.32 197.52 43.85 196.72 44.91C195.92 45.97 195.2 47.56 194.54 49.69C193.99 51.48 193.72 52.97 193.72 54.17C193.72 55.22 193.92 56 194.32 56.52C194.72 57.04 195.26 57.29 195.93 57.29C196.92 57.29 197.73 57.07 198.37 56.63C199.01 56.19 199.67 55.59 200.34 54.83C200.76 54.37 201.1 54.03 201.36 53.81C201.62 53.59 201.9 53.48 202.2 53.48C202.58 53.48 202.98 53.67 203.4 54.05C203.82 54.43 204.02 54.81 204 55.19C204.02 55.65 203.65 56.37 202.88 57.33C202.11 58.3 201.05 59.16 199.69 59.93C198.33 60.7 196.79 61.08 195.07 61.08C193.35 61.08 191.72 60.75 190.31 60.1L190.32 60.08Z" fill="#FF9900" stroke="black" stroke-width="0.7" stroke-miterlimit="10"/>
<path d="M218.69 38.25C219.27 38.71 219.56 39.34 219.56 40.14C219.56 40.6 219.49 41.05 219.34 41.5L214.39 57.59C214.33 57.84 214.3 58.06 214.3 58.25C214.3 58.52 214.35 58.74 214.46 58.9C214.57 59.06 214.71 59.21 214.9 59.36C215.05 59.51 215.15 59.63 215.22 59.72C215.29 59.81 215.29 59.94 215.25 60.08C215.14 60.35 214.93 60.55 214.62 60.68C214.3 60.81 213.82 60.87 213.17 60.87H205.98C205.43 60.87 205.03 60.78 204.78 60.6C204.53 60.42 204.44 60.19 204.53 59.89C204.61 59.64 204.83 59.42 205.19 59.23C205.51 59.06 205.77 58.86 205.98 58.63C206.19 58.4 206.37 58.03 206.52 57.53L211.31 41.79C211.37 41.6 211.4 41.44 211.4 41.32C211.4 41.09 211.34 40.9 211.23 40.75C211.11 40.6 210.96 40.46 210.77 40.31C210.56 40.14 210.41 39.99 210.31 39.87C210.21 39.74 210.2 39.58 210.26 39.37C210.39 38.89 211.05 38.47 212.25 38.11C213.45 37.75 214.7 37.57 216 37.57C217.22 37.57 218.12 37.8 218.7 38.26L218.69 38.25Z" fill="#FF9900" stroke="black" stroke-width="0.7" stroke-miterlimit="10"/>
<path d="M236.21 56.51C236.17 56.68 236.15 56.8 236.15 56.89C236.15 57.04 236.19 57.15 236.26 57.24C236.33 57.32 236.43 57.37 236.56 57.37C236.81 57.37 237.03 57.26 237.21 57.04C237.39 56.82 237.51 56.71 237.57 56.71C237.68 56.71 237.76 56.78 237.84 56.92C237.91 57.06 237.95 57.22 237.95 57.41C237.97 58 237.76 58.58 237.32 59.16C236.88 59.74 236.26 60.22 235.46 60.6C234.66 60.98 233.77 61.17 232.78 61.17C231.54 61.17 230.55 60.92 229.82 60.41C229.08 59.91 228.61 59.24 228.4 58.42C227.64 59.26 226.81 59.9 225.89 60.33C224.98 60.76 224.04 60.98 223.1 60.98C221.63 60.98 220.39 60.62 219.39 59.89C218.39 59.16 217.89 58.15 217.89 56.85C217.89 56.26 217.99 55.65 218.21 55.02L220.23 48.43C220.29 48.24 220.33 48.08 220.33 47.96C220.33 47.73 220.28 47.55 220.17 47.41C220.06 47.27 219.91 47.13 219.7 46.98C219.49 46.81 219.34 46.66 219.26 46.54C219.18 46.41 219.16 46.25 219.23 46.04C219.36 45.56 220.02 45.13 221.22 44.76C222.42 44.39 223.67 44.21 224.97 44.21C226.19 44.21 227.08 44.44 227.65 44.9C228.22 45.36 228.5 45.99 228.5 46.79C228.5 47.27 228.43 47.74 228.28 48.18L226.29 54.74C226.21 54.97 226.16 55.19 226.16 55.4C226.16 55.69 226.24 55.92 226.41 56.06C226.58 56.21 226.8 56.28 227.07 56.28C227.47 56.28 227.8 56.16 228.05 55.93C228.3 55.7 228.56 55.31 228.81 54.76L230.73 48.42C230.79 48.23 230.82 48.07 230.82 47.95C230.82 47.72 230.77 47.54 230.66 47.4C230.56 47.26 230.41 47.12 230.22 46.97C230.01 46.8 229.86 46.65 229.78 46.53C229.7 46.4 229.69 46.24 229.75 46.03C229.86 45.55 230.51 45.12 231.71 44.75C232.91 44.38 234.16 44.2 235.46 44.2C236.68 44.2 237.58 44.43 238.16 44.89C238.74 45.35 239.03 45.97 239.03 46.75C239.03 47.15 238.95 47.62 238.78 48.17L236.22 56.53L236.21 56.51Z" fill="#FF9900" stroke="black" stroke-width="0.7" stroke-miterlimit="10"/>
<path d="M258.94 45.72C259.87 46.83 260.34 48.31 260.34 50.14C260.34 51.09 260.22 52.01 259.99 52.92C259.32 55.63 258.17 57.68 256.54 59.07C254.91 60.46 253.03 61.15 250.91 61.15C249.71 61.15 248.68 60.94 247.8 60.53C246.93 60.12 246.23 59.54 245.7 58.78L244.56 59.76C244.12 60.14 243.69 60.42 243.27 60.6C242.85 60.78 242.37 60.87 241.82 60.87H240.43C239.9 60.87 239.5 60.76 239.22 60.54C238.94 60.32 238.79 60 238.79 59.58C238.79 59.39 238.82 59.17 238.89 58.92L244.16 41.79C244.22 41.6 244.25 41.44 244.25 41.32C244.25 40.96 244.03 40.63 243.59 40.31C243.38 40.12 243.23 39.97 243.15 39.85C243.07 39.73 243.06 39.58 243.12 39.39C243.27 38.91 243.93 38.48 245.12 38.11C246.31 37.74 247.55 37.56 248.86 37.56C250.08 37.56 250.98 37.8 251.56 38.27C252.14 38.74 252.43 39.38 252.43 40.18C252.43 40.62 252.36 41.06 252.21 41.5L250.89 45.79C252.11 44.63 253.55 44.06 255.21 44.06C256.77 44.06 258.01 44.62 258.95 45.73L258.94 45.72ZM252.27 49.25C252.27 48.28 251.99 47.8 251.42 47.8C250.92 47.8 250.44 48.06 250 48.59L247.95 55.28L247.76 55.88C247.65 56.2 247.6 56.52 247.6 56.86C247.6 57.6 247.95 57.96 248.64 57.96C249.14 57.96 249.63 57.59 250.09 56.86C250.55 56.12 251.07 54.75 251.64 52.73C252.06 51.3 252.27 50.14 252.27 49.26V49.25Z" fill="#FF9900" stroke="black" stroke-width="0.7" stroke-miterlimit="10"/>
</g>
<defs>
<filter id="filter0_d_5_105" x="82.6801" y="37.21" width="178.84" height="25.14" filterUnits="userSpaceOnUse" color-interpolation-filters="sRGB">
<feFlood flood-opacity="0" result="BackgroundImageFix"/>
<feColorMatrix in="SourceAlpha" type="matrix" values="0 0 0 0 0 0 0 0 0 0 0 0 0 0 0 0 0 0 127 0" result="hardAlpha"/>
<feOffset dx="0.83" dy="0.83"/>
<feColorMatrix type="matrix" values="0 0 0 0 0 0 0 0 0 0 0 0 0 0 0 0 0 0 1 0"/>
<feBlend mode="normal" in2="BackgroundImageFix" result="effect1_dropShadow_5_105"/>
<feBlend mode="normal" in="SourceGraphic" in2="effect1_dropShadow_5_105" result="shape"/>
</filter>
</defs>
</svg>
